<svg width="100px" height="100px" viewBox="0 0 100 100" version="1.1" xmlns="http://www.w3.org/2000/svg" xmlns:xlink="http://www.w3.org/1999/xlink">
    <path d="M68.311848,14.909686 C61.8135793,5.8780645 51.2313669,0 39.2807688,0 C19.5195958,0 3.5,16.0723914 3.5,35.8986908 C3.5,42.1192203 5.07696816,47.9702151 7.85168963,53.0712109 C8.26467505,29.7796892 27.2125319,11.0260265 50.5261532,11.0260265 C56.8736727,11.0260265 62.897562,12.4162182 68.311848,14.909686 Z M56.6599993,100.003496 C78.679592,100.003496 96.5299988,82.0942598 96.5299988,60.0020976 C96.5299988,37.9099353 78.679592,20.0006992 56.6599993,20.0006992 C34.6404066,20.0006992 16.7899998,37.9099353 16.7899998,60.0020976 C16.7899998,82.0942598 34.6404066,100.003496 56.6599993,100.003496 Z"></path>
</svg>
