
<svg width="100px" height="100px" viewBox="0 0 100 100" version="1.1" xmlns="http://www.w3.org/2000/svg" xmlns:xlink="http://www.w3.org/1999/xlink">
      <g id="au">
          <polygon id="Shape" fill="#FFFFFF" points="-0.504785156 14.570492 99.7704102 14.570492 99.7704102 85.429508 -0.504785156 85.429508"></polygon>
          <g transform="translate(0.000000, 11.000000)" id="Group">
              <g>
                  <polygon id="Shape" fill="#000066" points="0 0 100 0 100 75 0 75"></polygon>
                  <path d="M0,0 L0,4.3671875 L47.9745313,39.0625 L54.013125,39.0625 L54.013125,34.6953125 L6.03859375,0 L0,0 L0,0 Z M54.013125,0 L54.013125,4.3671875 L6.03859375,39.0625 L0,39.0625 L0,34.6953125 L47.9745313,0 L54.013125,0 L54.013125,0 Z" id="Shape" fill="#FFFFFF"></path>
                  <path d="M22.5054687,0 L22.5054687,39.0625 L31.5076562,39.0625 L31.5076562,0 L22.5053125,0 L22.5054687,0 Z M0,13.0207813 L0,26.0415625 L54.013125,26.0415625 L54.013125,13.0207813 L0,13.0207813 L0,13.0207813 Z" id="Shape" fill="#FFFFFF"></path>
                  <path d="M0,15.625 L0,23.4375 L54.013125,23.4375 L54.013125,15.625 L0,15.625 L0,15.625 Z M24.3059375,0 L24.3059375,39.0625 L29.7071875,39.0625 L29.7071875,0 L24.3059375,0 L24.3059375,0 Z M0,39.0625 L18.004375,26.0415625 L22.0301562,26.0415625 L4.02578125,39.0625 L0,39.0625 L0,39.0625 Z M0,0 L18.004375,13.0207813 L13.9785938,13.0207813 L0,2.91140625 L0,0 L0,0 Z M31.9828125,13.0207813 L49.9875,0 L54.013125,0 L36.00875,13.0207813 L31.9828125,13.0207813 L31.9828125,13.0207813 Z M54.0132813,39.0625 L36.0089063,26.0415625 L40.0346875,26.0415625 L54.0134375,36.1509375 L54.0134375,39.0625 L54.0132813,39.0625 Z" id="Shape" fill="#CC0000"></path>
                  <path d="M46.8378125,61.3317188 L40.0170313,61.9246875 L40.9565625,68.706875 L36.2398438,63.74375 L31.5232813,68.706875 L32.4629688,61.9246875 L25.6421875,61.3317188 L31.5296875,57.8373438 L27.7415625,52.135 L34.143125,54.5590625 L36.24,48.0414063 L38.336875,54.5589063 L44.7384375,52.1346875 L40.950625,57.836875 M76.02,67.5825 L74.3735938,65.1053125 L77.1564063,66.15875 L78.0664063,63.3267188 L78.9765625,66.1589063 L81.7589063,65.1054688 L80.1125,67.5826563 L82.6703125,69.1010938 L79.7070313,69.3589063 L80.1157813,72.3042188 L78.0664063,70.1490625 L76.016875,72.304375 L76.425625,69.3590625 L73.4625,69.10125 M76.02,23.5051563 L74.3735938,21.0276563 L77.1564063,22.0810938 L78.0664063,19.2495313 L78.9765625,22.0807813 L81.7589063,21.0276563 L80.1125,23.505 L82.6703125,25.0232813 L79.7070313,25.2810938 L80.1157813,28.2264063 L78.0664063,26.07125 L76.016875,28.2265625 L76.425625,25.28125 L73.4625,25.0234375 M59.4909375,41.4114062 L57.8445313,38.934375 L60.6270313,39.9878125 L61.5371875,37.1557812 L62.4473438,39.9878125 L65.2298438,38.934375 L63.5835938,41.4114062 L66.1414063,42.9301562 L63.178125,43.1879687 L63.5867188,46.1332812 L61.5371875,43.9778125 L59.4876563,46.1332812 L59.8965625,43.1879687 L56.9334375,42.9301562 M90.7165625,37.00375 L89.066875,34.5265625 L91.8515625,35.58 L92.755,32.7479688 L93.6696875,35.58 L96.4465625,34.5265625 L94.8046875,37.00375 L97.36125,38.5221875 L94.3971875,38.78 L94.8046875,41.7253125 L92.755,39.5701563 L90.7054688,41.7253125 L91.1132813,38.78 L88.1545313,38.5221875 M84.6778125,49.99 L83.0579688,50.9939063 L83.5132813,49.1439063 L82.0576563,47.9153125 L83.9584375,47.7753125 L84.6779688,46.01125 L85.3976563,47.7753125 L87.2984375,47.9154688 L85.8426563,49.1440625 L86.2976563,50.9940625" id="Shape" fill="#FFFFFF"></path>
              </g>
          </g>
      </g>
</svg>
