<svg width="100px" height="100px" viewBox="0 0 100 100" version="1.1" xmlns="http://www.w3.org/2000/svg" xmlns:xlink="http://www.w3.org/1999/xlink">
    <path d="M79.3690938,67.8246955 L89.3244688,77.7800705 L89.3244688,82.6429452 L10.1592382,82.6429452 L10.1592382,77.7800705 L20.1146132,67.8246955 L20.1146132,43.2881036 C20.1146132,28.010603 28.2181699,15.5108297 42.3364323,12.0368187 L42.3364323,8.56280763 C42.3364323,4.39621654 45.5771142,1.15553459 49.7437053,1.15553459 C53.9102964,1.15553459 57.1509783,4.39621654 57.1509783,8.56280763 L57.1509783,12.0368187 C71.2729444,15.5108297 79.3727974,28.2402284 79.3727974,43.2881036 L79.3727974,67.8246955 L79.3690938,67.8246955 Z M49.7400017,97.4537877 C44.1845469,97.4537877 39.7846267,93.0538675 39.7846267,87.7317418 L59.691673,87.7317418 C59.691673,93.0575711 55.0621274,97.4537877 49.736298,97.4537877 L49.7400017,97.4537877 Z" id="Shape"></path>
</svg>
