<?xml version="1.0" encoding="UTF-8" standalone="no"?>
<svg width="100px" height="100px" viewBox="0 0 100 100" version="1.1" xmlns="http://www.w3.org/2000/svg" xmlns:xlink="http://www.w3.org/1999/xlink">
    <!-- Generator: Sketch 40.3 (33839) - http://www.bohemiancoding.com/sketch -->
    <title>ca</title>
    <desc>Created with Sketch.</desc>
    <defs></defs>
    <g id="Page-1" stroke="none" stroke-width="1" fill="none" fill-rule="evenodd">
        <g id="ca">
            <polygon id="Shape" fill="#FFFFFF" points="3.1328125 17.1409841 96.1328125 17.1409841 96.1328125 82.8590159 3.1328125 82.8590159"></polygon>
            <path d="M3.1328125,17.1409841 L26.3828767,17.1409841 L26.3828767,82.8590159 L3.1328125,82.8590159 L3.1328125,17.1409841 Z M72.8828767,17.1409841 L96.1328125,17.1409841 L96.1328125,82.8590159 L72.883005,82.8590159 L72.8828767,17.1409841 Z M33.3361525,48.897426 L31.5305752,49.5145594 L39.9322149,56.8880712 C40.5675748,58.7831123 39.7114434,59.3417155 39.1659324,60.3357008 L48.2868764,59.1779339 L48.0494187,68.3568946 L49.9385554,68.3026002 L49.5265341,59.1998827 L58.656463,60.2821765 C58.091442,59.0888552 57.588545,58.4552923 58.1113371,56.5472873 L66.5075858,49.5614092 L65.0383,49.0295038 C63.8368923,48.1025202 65.5573698,44.564785 65.8169047,42.3321689 C65.8169047,42.3321689 60.9143652,44.0181188 60.5930913,43.1359313 L59.344577,40.7376082 L54.8846074,45.6369388 C54.3973698,45.7537423 54.1898189,45.5599255 54.0754541,45.1481609 L56.1359455,34.9097536 L52.8731479,36.7448527 C52.6000073,36.8616562 52.3268667,36.7608971 52.1469123,36.4425754 L49.0086196,30.145453 L45.7727766,36.6851673 C45.5289011,36.9195445 45.2846405,36.9466276 45.0819671,36.7873383 L41.9752499,35.0445269 L43.8402557,45.2029687 C43.6918767,45.6060051 43.3365886,45.7195998 42.918663,45.501267 L38.6552057,40.6575143 C38.0975009,41.5511255 37.7194939,43.0110413 36.9823481,43.3382196 C36.2450739,43.6446042 33.7760269,42.7191609 32.121139,42.3579684 C32.6864168,44.3981796 34.4541292,47.7876641 33.3353824,48.8985812 L33.3361525,48.897426 Z" id="Shape" fill="#BF0A30"></path>
        </g>
    </g>
</svg>