<svg width="100px" height="100px" viewBox="0 0 100 100" version="1.1" xmlns="http://www.w3.org/2000/svg" xmlns:xlink="http://www.w3.org/1999/xlink">
    <path d="M100,100 L0,100 L0,12.5 L12.5,12.5 L12.5,87.5 L87.5,87.5 L87.5,12.5 L100,12.5 L100,100 Z M18.75,37.5 L31.25,37.5 L31.25,50 L18.75,50 L18.75,37.5 Z M43.75,37.5 L56.25,37.5 L56.25,50 L43.75,50 L43.75,37.5 Z M68.75,37.5 L81.25,37.5 L81.25,50 L68.75,50 L68.75,37.5 Z M18.75,62.5 L31.25,62.5 L31.25,75 L18.75,75 L18.75,62.5 Z M43.75,62.5 L56.25,62.5 L56.25,75 L43.75,75 L43.75,62.5 Z M68.75,75 L68.75,62.5 L81.25,62.5 L68.75,75 Z M25,18.75 L25,6.25 C25,2.796875 27.796875,0 31.25,0 C34.703125,0 37.5,2.796875 37.5,6.25 L37.5,18.75 C37.5,22.203125 34.703125,25 31.25,25 C27.796875,25 25,22.203125 25,18.75 L25,18.75 Z M62.5,18.75 L62.5,6.25 C62.5,2.796875 65.296875,0 68.75,0 C72.203125,0 75,2.796875 75,6.25 L75,18.75 C75,22.203125 72.203125,25 68.75,25 C65.296875,25 62.5,22.203125 62.5,18.75 L62.5,18.75 Z" id="Shape"></path>
</svg>
