<svg width="100px" height="100px" viewBox="0 0 100 100" version="1.1" xmlns="http://www.w3.org/2000/svg" xmlns:xlink="http://www.w3.org/1999/xlink">
    <path d="M50,62.5 C50,55.596875 55.596875,50 62.5,50 C69.403125,50 75,55.596875 75,62.5 C75,69.403125 69.403125,75 62.5,75 C55.596875,75 50,69.403125 50,62.5 L50,62.5 Z M87.5,25 L77.221875,4.240625 C76.378125,1.775 74.046875,0 71.2875,0 L54.125,0 C51.334375,0 48.98125,1.81875 48.175,4.328125 L37.5125,25 L12.5,25 C5.596875,25 -7.10542736e-15,30.596875 -7.10542736e-15,37.5 L-7.10542736e-15,100 L100,100 L100,37.5 C100,30.596875 94.409375,25 87.5,25 L87.5,25 Z M18.75,50 C15.296875,50 12.5,47.203125 12.5,43.75 C12.5,40.296875 15.296875,37.5 18.75,37.5 C22.203125,37.5 25,40.296875 25,43.75 C25,47.203125 22.203125,50 18.75,50 L18.75,50 Z M62.5,87.5 C48.69375,87.5 37.5,76.30625 37.5,62.5 C37.5,48.69375 48.69375,37.5 62.5,37.5 C76.30625,37.5 87.5,48.69375 87.5,62.5 C87.5,76.30625 76.30625,87.5 62.5,87.5 L62.5,87.5 Z" id="Shape"></path>
</svg>
