<svg width="100px" height="100px" viewBox="0 0 100 100" version="1.1" xmlns="http://www.w3.org/2000/svg" xmlns:xlink="http://www.w3.org/1999/xlink">
    <path d="M50,12.5 C70.678125,12.5 87.5,29.321875 87.5,50 C87.5,70.678125 70.678125,87.5 50,87.5 C29.321875,87.5 12.5,70.678125 12.5,50 C12.5,29.321875 29.321875,12.5 50,12.5 L50,12.5 Z M50,0 C22.3875,0 0,22.3875 0,50 C0,77.6125 22.3875,100 50,100 C77.6125,100 100,77.6125 100,50 C100,22.3875 77.6125,0 50,0 L50,0 L50,0 Z M66.94375,58.05625 L56.25,47.35 L56.25,25 L43.678125,25 L43.678125,49.975 C43.678125,51.85625 44.54375,53.478125 45.85,54.6375 L58.10625,66.89375 L66.94375,58.05625 L66.94375,58.05625 Z" id="Shape"></path>
</svg>
