<svg width="100px" height="100px" viewBox="0 0 100 100" version="1.1" xmlns="http://www.w3.org/2000/svg" xmlns:xlink="http://www.w3.org/1999/xlink">
    <path d="M100,56.153125 L100,43.653125 L85.059375,37.428125 C84.64375,36.25625 84.20625,35.121875 83.66875,34.009375 L89.7,18.99375 L80.859375,10.15625 L65.978125,16.284375 C64.84375,15.734375 63.684375,15.271875 62.4875,14.84375 L56.153125,0 L43.653125,0 L37.475,14.79375 C36.23125,15.234375 35.034375,15.696875 33.85,16.259375 L18.99375,10.290625 L10.15625,19.128125 L16.2125,33.85 C15.625,35.059375 15.15,36.290625 14.696875,37.5625 L-7.10542736e-15,43.846875 L-7.10542736e-15,56.346875 L14.709375,62.475 C15.1625,63.74375 15.65,64.978125 16.234375,66.1875 L10.290625,81.00625 L19.128125,89.84375 L33.8875,83.765625 C35.071875,84.328125 36.28125,84.778125 37.525,85.20625 L43.846875,100 L56.346875,100 L62.534375,85.13125 C63.71875,84.690625 64.890625,84.228125 66.0125,83.690625 L81.003125,89.696875 L89.840625,80.859375 L83.6875,65.94375 C84.2125,64.821875 84.640625,63.684375 85.05625,62.525 L100,56.153125 L100,56.153125 Z M49.903125,68.75 C39.553125,68.75 31.153125,60.35 31.153125,50 C31.153125,39.65 39.553125,31.25 49.903125,31.25 C60.253125,31.25 68.653125,39.65 68.653125,50 C68.653125,60.35 60.253125,68.75 49.903125,68.75 L49.903125,68.75 Z" id="Shape"></path>
</svg>
