<svg width="85px" height="100px" viewBox="0 0 85 100" version="1.1" xmlns="http://www.w3.org/2000/svg" xmlns:xlink="http://www.w3.org/1999/xlink">
    <g id="design" transform="translate(-8.000000, 0.000000)">
        <path d="M78.2504877,34.7261737 L77.6528241,34.0212037 L86.6025194,23.4656527 C86.6025194,23.4656527 95.5513669,12.9111016 90.7785352,7.28134111 L88.3938148,4.46746081 L88.3921193,4.46646085 L86.007399,1.65258055 C81.2337195,-3.97618002 72.284872,6.57937097 72.284872,6.57937097 L63.3368722,17.134922 C61.6896942,15.1920046 59.0184344,15.1920046 57.3712564,17.134922 L52.0024565,23.4676526 C50.3561263,25.4105699 50.3561263,28.5624359 52.0024565,30.5043533 L53.1952406,31.9112934 L16.8284671,74.8064687 L16.6962181,75.7494286 C15.6339875,83.2661089 9.56494624,91.8187451 9.5064515,91.9027415 L8,93.9996523 L9.64717798,95.9415697 L11.4367779,98.0524799 L13.0848037,99.9963972 L14.8616874,98.2214727 C14.9345939,98.1484758 22.1582704,90.99678 28.5570864,89.7398335 L29.3556668,89.5828402 L65.723288,46.6866649 L66.9169198,48.094605 C68.5624023,50.0365224 71.2353576,50.0365224 72.8816879,48.094605 L78.2504877,41.7618744 C79.8985135,39.818957 79.8976657,36.6680911 78.2504877,34.7261737 L78.2504877,34.7261737 Z M26.9005832,84.0360761 C23.5875767,84.8730405 20.2745702,86.789959 17.5821167,88.6958779 C19.1970802,85.5180131 20.8222166,81.6121792 21.5317833,77.7023455 L56.7744405,36.1321139 L62.1432404,42.4648445 L26.9005832,84.0360761 L26.9005832,84.0360761 Z"></path>
    </g>
</svg>
