<svg width="100px" height="100px" viewBox="0 0 100 100" version="1.1" xmlns="http://www.w3.org/2000/svg" xmlns:xlink="http://www.w3.org/1999/xlink">
    <path d="M56.25,6.25 C56.25,2.8125 53.4375,0 50,0 C46.5625,0 43.75,2.8125 43.75,6.25 L43.75,62.5 L37.5,62.5 L37.5,75 L43.75,75 L43.75,93.75 C43.75,97.1875 46.5625,100 50,100 C53.4375,100 56.25,97.1875 56.25,93.75 L56.25,75 L62.5,75 L62.5,62.5 L56.25,62.5 L56.25,6.25 L56.25,6.25 Z M18.75,6.25 C18.75,2.8125 15.9375,0 12.5,0 C9.0625,0 6.25,2.8125 6.25,6.25 L6.25,37.5 L0,37.5 L0,50 L6.25,50 L6.25,93.75 C6.25,97.1875 9.0625,100 12.5,100 C15.9375,100 18.75,97.1875 18.75,93.75 L18.75,50 L25,50 L25,37.5 L18.75,37.5 L18.75,6.25 L18.75,6.25 Z M100,25 L93.75,25 L93.75,6.25 C93.75,2.8125 90.9375,0 87.5,0 C84.0625,0 81.25,2.8125 81.25,6.25 L81.25,25 L75,25 L75,37.5 L81.25,37.5 L81.25,93.75 C81.25,97.1875 84.0625,100 87.5,100 C90.9375,100 93.75,97.1875 93.75,93.75 L93.75,37.5 L100,37.5 L100,25 L100,25 Z" id="Shape"></path>
</svg>
