<svg width="100px" height="100px" viewBox="0 0 100 100" version="1.1" xmlns="http://www.w3.org/2000/svg" xmlns:xlink="http://www.w3.org/1999/xlink">
    <g id="export" >
        <path d="M88.9718227,3 L61.8612646,3 C59.6875054,3 57.9258153,4.9404195 57.9258153,7.33471394 C57.9258153,9.72900841 59.6875054,11.6694279 61.8612646,11.6694279 L79.9081919,11.6694279 L41.287106,54.2087532 C39.7494076,55.9014153 39.7494076,58.646526 41.287106,60.339188 C42.0554826,61.185519 43.0629728,61.6092051 44.0695178,61.6092051 C45.0760628,61.6092051 46.083553,61.185519 46.8519297,60.339188 L85.0363734,18.2797626 L85.0363734,37.1946887 C85.0363734,39.5889832 86.7980635,41.5294026 88.9718227,41.5294026 C91.1455821,41.5294026 92.9072722,39.5889832 92.9072722,37.1946887 L92.9072722,7.33471394 C92.9072722,4.9404195 91.1455821,3 88.9718227,3 L88.9718227,3 Z M75.2296477,46.9071962 C73.0558884,46.9071962 71.2941983,48.8476156 71.2941983,51.2419101 L71.2941983,85.4407628 C71.2941983,87.0074641 70.09296,88.3305721 68.6705655,88.3305721 L18.4945315,88.3305721 C17.072137,88.3305721 15.8708986,87.0074641 15.8708986,85.4407628 L15.8708986,30.174201 C15.8708986,28.6074996 17.072137,27.2843916 18.4945315,27.2843916 L49.6530074,27.2843916 C51.8267667,27.2843916 53.5884568,25.3439722 53.5884568,22.9496777 C53.5884568,20.5553833 51.8267667,18.6149638 49.6530074,18.6149638 L18.4945315,18.6149638 C12.7076064,18.6149638 8,23.8001727 8,30.174201 L8,85.4407628 C8,91.814791 12.7076064,97 18.4945315,97 L68.6705655,97 C74.4574906,97 79.165097,91.814791 79.165097,85.4407628 L79.165097,51.2419101 C79.165097,48.8486567 77.4034069,46.9071962 75.2296477,46.9071962 L75.2296477,46.9071962 Z" id="Combined-Shape"></path>
    </g>
</svg>
