<svg width="100px" height="100px" viewBox="0 0 100 100" version="1.1" xmlns="http://www.w3.org/2000/svg" xmlns:xlink="http://www.w3.org/1999/xlink">
    <g id="facebook" >
        <path d="M57.4292517,5 L40.3304989,5 L40.3304989,50.5280045 L29,50.5280045 L29,66.1846939 L40.3304989,66.1846939 L40.3304989,75.455102 C40.3304989,82.4594104 41.7725624,87.4036281 44.4506803,90.9057823 C47.1287982,94.2019274 51.8670068,95.85 58.8713152,95.85 L71.4378685,95.85 L71.4378685,80.1933107 L63.6095238,80.1933107 C60.9314059,80.1933107 59.2833333,79.7812925 58.6653061,78.7512472 C58.0472789,77.9272109 57.8412698,76.2791383 57.8412698,73.8070295 L57.8412698,65.9786848 L71.8498866,65.9786848 L70.2018141,50.3219955 L57.8412698,50.3219955 C57.7212989,50.4419664 57.6362609,46.6494416 57.5759842,41.2127209 C57.4292517,27.9780254 57.4292517,5 57.4292517,5 L57.4292517,5 Z" id="Shape" transform="translate(50.424943, 50.425000) scale(1, -1) translate(-50.424943, -50.425000) "></path>
    </g>
</svg>
