<svg width="100px" height="100px" viewBox="0 0 100 100" version="1.1" xmlns="http://www.w3.org/2000/svg" xmlns:xlink="http://www.w3.org/1999/xlink">
    <path d="M99.5722263,2.76416195 C100.377116,4.70225251 100.046158,6.35704295 98.579352,7.72853327 L63.6142919,42.6935934 L63.6142919,95.3159294 C63.6142919,97.3016779 62.6929046,98.6969972 60.85013,99.5018872 C60.2358717,99.7375294 59.6454425,99.8553505 59.0788423,99.8553505 C57.8026679,99.8553505 56.7383067,99.4065713 55.8857586,98.509013 L37.7320456,80.3552999 C36.8344873,79.4577416 36.3857081,78.3933804 36.3857081,77.1622163 L36.3857081,42.6935934 L1.42064801,7.72853327 C-0.0461582385,6.35704295 -0.377116327,4.70225251 0.427773744,2.76416195 C1.23266381,0.921387317 2.62798311,0 4.61373164,0 L95.3902399,0 C97.3759884,0 98.7713077,0.921387317 99.5761978,2.76416195 L99.5722263,2.76416195 Z" id="Shape"></path>
</svg>
