<svg width="100px" height="100px" viewBox="0 0 100 100" version="1.1" xmlns="http://www.w3.org/2000/svg" xmlns:xlink="http://www.w3.org/1999/xlink">
    <path d="M50,100 C77.615625,100 100,77.615625 100,50 C100,22.384375 77.615625,0 50,0 C22.384375,0 0,22.384375 0,50 C0,77.615625 22.384375,100 50,100 L50,100 Z M50,9.375 C72.4375,9.375 90.625,27.5625 90.625,50 C90.625,72.4375 72.4375,90.625 50,90.625 C27.5625,90.625 9.375,72.4375 9.375,50 C9.375,27.5625 27.5625,9.375 50,9.375 L50,9.375 Z M25,31.25 C25,27.796875 27.796875,25 31.25,25 C34.703125,25 37.5,27.796875 37.5,31.25 C37.5,34.703125 34.703125,37.5 31.25,37.5 C27.796875,37.5 25,34.703125 25,31.25 L25,31.25 Z M62.5,31.25 C62.5,27.796875 65.296875,25 68.75,25 C72.203125,25 75,27.796875 75,31.25 C75,34.703125 72.203125,37.5 68.75,37.5 C65.296875,37.5 62.5,34.703125 62.5,31.25 L62.5,31.25 Z M31.240625,76.24375 L23.2,71.41875 C28.665625,62.33125 38.621875,56.246875 50,56.246875 C61.378125,56.246875 71.334375,62.328125 76.8,71.41875 L68.759375,76.24375 C64.934375,69.88125 57.965625,65.625 50,65.625 C42.034375,65.625 35.065625,69.88125 31.240625,76.24375 L31.240625,76.24375 Z" id="sad"></path>
</svg>
