<svg width="100px" height="100px" viewBox="0 0 100 100" version="1.1" xmlns="http://www.w3.org/2000/svg" xmlns:xlink="http://www.w3.org/1999/xlink">
    <path d="M0,25 L25,25 L25,0 L0,0 L0,25 L0,25 Z M37.5,25 L62.5,25 L62.5,0 L37.5,0 L37.5,25 L37.5,25 Z M75,0 L75,25 L100,25 L100,0 L75,0 L75,0 Z M0,62.5 L25,62.5 L25,37.5 L0,37.5 L0,62.5 L0,62.5 Z M37.5,62.5 L62.5,62.5 L62.5,37.5 L37.5,37.5 L37.5,62.5 L37.5,62.5 Z M75,62.5 L100,62.5 L100,37.5 L75,37.5 L75,62.5 L75,62.5 Z M0,100 L25,100 L25,75 L0,75 L0,100 L0,100 Z M37.5,100 L62.5,100 L62.5,75 L37.5,75 L37.5,100 L37.5,100 Z M75,100 L100,100 L100,75 L75,75 L75,100 L75,100 Z" id="Shape"></path>
</svg>
