<svg width="100px" height="100px" viewBox="0 0 100 100" version="1.1" xmlns="http://www.w3.org/2000/svg" xmlns:xlink="http://www.w3.org/1999/xlink">
    <g id="hamburger">
        <path d="M8,12.9992042 C8,12.447359 8.45732319,12 8.99884173,12 L92.0011583,12 C92.5528033,12 93,12.4409655 93,12.9992042 L93,20.6782152 C93,21.2300604 92.5426768,21.6774194 92.0011583,21.6774194 L8.99884173,21.6774194 C8.44719668,21.6774194 8,21.2364538 8,20.6782152 L8,12.9992042 Z M8,78.9992042 C8,78.447359 8.45732319,78 8.99884173,78 L92.0011583,78 C92.5528033,78 93,78.4409655 93,78.9992042 L93,86.6782152 C93,87.2300604 92.5426768,87.6774194 92.0011583,87.6774194 L8.99884173,87.6774194 C8.44719668,87.6774194 8,87.2364538 8,86.6782152 L8,78.9992042 Z M8,45.9992042 C8,45.447359 8.45732319,45 8.99884173,45 L92.0011583,45 C92.5528033,45 93,45.4409655 93,45.9992042 L93,53.6782152 C93,54.2300604 92.5426768,54.6774194 92.0011583,54.6774194 L8.99884173,54.6774194 C8.44719668,54.6774194 8,54.2364538 8,53.6782152 L8,45.9992042 Z" id="Menu"></path>
    </g>
</svg>
