<svg width="100px" height="100px" viewBox="0 0 100 100" version="1.1" xmlns="http://www.w3.org/2000/svg" xmlns:xlink="http://www.w3.org/1999/xlink">
    <g id="happy" >
        <path d="M50.0000066,5 C25.1487462,5 5,25.14875 5,50 C5,74.85125 25.1487462,95 50.0000066,95 C74.851253,95 95,74.85125 95,50 C95,25.14875 74.851253,5 50.0000066,5 L50.0000066,5 Z M50.0000066,10.625 C71.7125034,10.625 89.3750008,28.2875 89.3750008,50 C89.3750008,71.7125 71.7125034,89.375 50.0000066,89.375 C28.2874957,89.375 10.6249983,71.7125 10.6249983,50 C10.6249983,28.2875 28.2874957,10.625 50.0000066,10.625 L50.0000066,10.625 L50.0000066,10.625 L50.0000066,10.625 Z M35.800851,54.7565391 C35.4349206,53.6282583 34.3752234,52.8125 33.1249959,52.8125 C31.5716954,52.8125 30.3124963,54.0716993 30.3124963,55.625 C30.3124963,56.2874526 30.5415266,56.8964126 30.9247237,57.3770159 C32.365959,59.9657585 38.5411849,69.6875 49.9999934,69.6875 C61.4588018,69.6875 67.6340277,59.9657585 69.0752631,57.3770159 C69.4584602,56.8964126 69.6874905,56.2874526 69.6874905,55.625 C69.6874905,54.0716993 68.4282914,52.8125 66.8749909,52.8125 C65.6247634,52.8125 64.5650662,53.6282583 64.1991358,54.7565391 C63.3128761,56.2792626 58.3733126,64.0625 49.9999934,64.0625 C41.6266742,64.0625 36.6871107,56.2792626 35.800851,54.7565391 L35.800851,54.7565391 L35.800851,54.7565391 L35.800851,54.7565391 L35.800851,54.7565391 Z" id="Icon"></path>
    </g>
</svg>
