<svg width="100px" height="100px" viewBox="0 0 100 100" version="1.1" xmlns="http://www.w3.org/2000/svg" xmlns:xlink="http://www.w3.org/1999/xlink">
    <g id="instagram" >
        <path d="M26.6472603,50.15 C26.6472603,62.9321918 37.1616438,73.4465753 49.9438356,73.4465753 C62.7260274,73.4465753 73.240411,62.9321918 73.240411,50.15 C73.240411,37.3678082 62.7260274,26.8534247 49.9438356,26.8534247 C37.1616438,26.8534247 26.6472603,37.3678082 26.6472603,50.15 Z M34.8938356,50.15 C34.8938356,41.9034247 41.6972603,35.1 49.9438356,35.1 C58.190411,35.1 64.9938356,41.9034247 64.9938356,50.15 C64.9938356,58.3965753 58.3965753,65.2 49.9438356,65.2 C41.4910959,65.2 34.8938356,58.3965753 34.8938356,50.15 Z M68.7047945,25.8226027 C68.7047945,28.7089041 71.1787671,31.1828767 74.0650685,31.1828767 C76.9513699,31.1828767 79.4253425,28.7089041 79.4253425,25.8226027 C79.4253425,22.9363014 77.1575342,20.4623288 74.0650685,20.4623288 C70.9726027,20.4623288 68.7047945,22.9363014 68.7047945,25.8226027 Z M93.0321918,20.4623288 C91.7952055,17.5760274 90.3520548,14.8958904 87.8780822,12.4219178 C85.4041096,9.94794521 82.930137,8.29863014 79.8376712,7.26780822 C76.9513699,6.2369863 73.6527397,5.41232877 68.9109589,5.20616438 C64.1691781,5 62.519863,5 50.15,5 C37.780137,5 36.3369863,5 31.3890411,5.20616438 C26.6472603,5.41232877 23.3486301,6.2369863 20.4623288,7.26780822 C17.5760274,8.50479452 14.8958904,9.94794521 12.4219178,12.4219178 C9.94794521,14.8958904 8.29863014,17.369863 7.26780822,20.4623288 C6.2369863,23.3486301 5.41232877,26.6472603 5.20616438,31.3890411 C5,36.1308219 5,37.780137 5,50.15 C5,62.519863 5,63.9630137 5.20616438,68.9109589 C5.41232877,73.6527397 6.2369863,76.9513699 7.26780822,79.8376712 C8.50479452,82.7239726 9.94794521,85.4041096 12.4219178,87.8780822 C14.8958904,90.3520548 17.369863,92.0013699 20.4623288,93.0321918 C23.3486301,94.0630137 26.6472603,94.8876712 31.3890411,95.0938356 C36.1308219,95.3 37.780137,95.3 50.15,95.3 C62.519863,95.3 63.9630137,95.3 68.9109589,95.0938356 C73.6527397,94.8876712 76.9513699,94.0630137 79.8376712,93.0321918 C82.7239726,91.7952055 85.4041096,90.3520548 87.8780822,87.8780822 C90.3520548,85.4041096 92.0013699,82.930137 93.0321918,79.8376712 C94.0630137,76.9513699 94.8876712,73.6527397 95.0938356,68.9109589 C95.3,64.1691781 95.3,62.519863 95.3,50.15 C95.3,37.780137 95.3,36.3369863 95.0938356,31.3890411 C94.8876712,26.6472603 94.0630137,23.3486301 93.0321918,20.4623288 Z M85.1979452,76.9513699 C84.3732877,79.0130137 83.3424658,80.6623288 81.8993151,82.1054795 C80.4561644,83.5486301 78.8068493,84.5794521 76.7452055,85.4041096 C75.0958904,86.0226027 72.8280822,86.8472603 68.2924658,87.0534247 C63.5506849,87.259589 62.1075342,87.259589 49.9438356,87.259589 C37.780137,87.259589 36.3369863,87.259589 31.5952055,87.0534247 C27.2657534,86.8472603 24.7917808,86.0226027 23.1424658,85.4041096 C21.0808219,84.5794521 19.4315068,83.5486301 17.9883562,82.1054795 C16.5452055,80.6623288 15.5143836,79.0130137 14.689726,76.9513699 C14.0712329,75.3020548 13.2465753,73.0342466 13.040411,68.4986301 C12.8342466,63.7568493 12.8342466,62.3136986 12.8342466,50.15 C12.8342466,37.9863014 12.8342466,36.5431507 13.040411,31.8013699 C13.2465753,27.4719178 14.0712329,24.9979452 14.689726,23.3486301 C15.5143836,21.2869863 16.5452055,19.6376712 17.9883562,18.1945205 C19.4315068,16.7513699 21.0808219,15.7205479 23.1424658,14.8958904 C24.7917808,14.2773973 27.059589,13.4527397 31.5952055,13.2465753 C36.3369863,13.040411 37.780137,13.040411 49.9438356,13.040411 C62.1075342,13.040411 63.5506849,13.040411 68.2924658,13.2465753 C72.6219178,13.4527397 75.0958904,14.2773973 76.7452055,14.8958904 C78.8068493,15.7205479 80.4561644,16.7513699 81.8993151,18.1945205 C83.3424658,19.6376712 84.3732877,21.2869863 85.1979452,23.3486301 C85.8164384,24.9979452 86.6410959,27.2657534 86.8472603,31.8013699 C87.0534247,36.5431507 87.0534247,37.9863014 87.0534247,50.15 C87.0534247,62.3136986 87.0534247,63.7568493 86.8472603,68.4986301 C86.6410959,72.8280822 85.8164384,75.3020548 85.1979452,76.9513699 Z" id="Shape"></path>
    </g>
</svg>
