<svg width="100px" height="100px" viewBox="0 0 100 100" version="1.1" xmlns="http://www.w3.org/2000/svg" xmlns:xlink="http://www.w3.org/1999/xlink">
    <path d="M68.75,0 C51.490625,0 37.5,13.990625 37.5,31.25 C37.5,33.203125 37.73125,35.084375 38.075,36.925 L0,75 L0,100 L37.5,100 L37.5,87.5 L50,87.5 L50,75 L62.5,75 L62.5,62.5 L63.075,61.925 C64.915625,62.26875 66.796875,62.5 68.75,62.5 C86.009375,62.5 100,48.509375 100,31.25 C100,13.990625 86.009375,0 68.75,0 L68.75,0 Z M68.775,37.5 C65.321875,37.5 62.525,34.703125 62.525,31.25 C62.525,27.796875 65.321875,25 68.775,25 C72.228125,25 75.025,27.796875 75.025,31.25 C75.025,34.703125 72.228125,37.5 68.775,37.5 L68.775,37.5 Z" id="Shape"></path>
</svg>
