<?xml version="1.0" encoding="UTF-8" standalone="no"?>
<svg width="100px" height="100px" viewBox="0 0 100 100" version="1.1" xmlns="http://www.w3.org/2000/svg" xmlns:xlink="http://www.w3.org/1999/xlink">
    <!-- Generator: Sketch 40.3 (33839) - http://www.bohemiancoding.com/sketch -->
    <title>kr</title>
    <desc>Created with Sketch.</desc>
    <defs></defs>
    <g id="Page-1" stroke="none" stroke-width="1" fill="none" fill-rule="evenodd">
        <g id="kr">
            <polygon id="Shape" fill="#FFFFFF" points="106.187109 89.2114165 -5.65273437 89.2114165 -5.65273437 10.7885835 106.187109 10.7885835"></polygon>
            <path d="M51.2392018,50.0706112 C51.2392018,59.5881104 43.5237429,67.3034161 34.00655,67.3034161 C24.4890509,67.3034161 16.7738983,59.5879572 16.7738983,50.0706112 C16.7738983,40.553112 24.489204,32.8379595 34.00655,32.8379595 C43.5240492,32.8379595 51.2392018,40.5534183 51.2392018,50.0706112 L51.2392018,50.0706112 Z" id="Shape" fill="#FFFFFF"></path>
            <path d="M72.8575585,51.0706555 C72.8575585,63.4894931 62.896327,73.5564116 50.6079899,73.5564116 C38.3196527,73.5564116 28.358268,63.4896463 28.358268,51.0706555 C28.358268,38.6516646 38.3194995,28.5847461 50.6079899,28.5847461 C62.8964802,28.5847461 72.8574053,38.6518178 72.8574053,51.0706555 L72.8575585,51.0706555 Z" id="Shape" fill="#C70000"></path>
            <path d="M28.6817622,47.108158 C29.385117,52.7714507 30.4121191,59.0821912 39.1277755,59.7377571 C42.3945766,59.9335078 48.74943,58.9605745 50.9311777,50.0589703 C53.7936111,41.5076649 62.4150681,39.0491397 68.2822295,43.6851239 C71.6087668,45.8549244 72.5291629,49.3012403 72.7674948,51.8884279 C72.5011329,60.1968063 67.7321975,67.389191 61.6132253,70.5965624 C54.5781458,74.7780923 44.8319644,74.865399 36.2942911,68.5303045 C32.4466709,64.9200972 27.0705712,58.2648782 28.6817622,47.1080049 L28.6817622,47.108158 Z" id="Shape" fill="#3D5897"></path>
            <path d="M5.09104058,30.2227418 L17.905209,15.40052 L20.9411835,18.025081 L8.12701514,32.847456 L5.09104058,30.2227418 Z M9.28773434,33.85087 L22.1019027,19.0286482 L25.1377241,21.6532092 L12.3235557,36.475431 L9.28773434,33.85087 Z" id="Shape" fill="#000000"></path>
            <polygon id="Shape" fill="#000000" points="5.09104058 30.2227418 17.905209 15.40052 20.9411835 18.025081 8.12701514 32.847456"></polygon>
            <path d="M5.09104058,30.2227418 L17.905209,15.40052 L20.9411835,18.025081 L8.12701514,32.847456 L5.09104058,30.2227418 Z M13.5741855,37.556502 L26.3883539,22.7342803 L29.4241752,25.3589944 L16.6100069,40.1812162 L13.5741855,37.556502 Z" id="Shape" fill="#000000"></path>
            <polygon id="Shape" fill="#000000" points="5.09104058 30.2227418 17.905209 15.40052 20.9411835 18.025081 8.12701514 32.847456"></polygon>
            <path d="M5.09104058,30.2227418 L17.905209,15.40052 L20.9411835,18.025081 L8.12701514,32.847456 L5.09104058,30.2227418 Z M83.028326,15.3956186 L95.7417088,30.3043812 L92.6879666,32.9082643 L79.9745838,17.9996549 L83.028326,15.3956186 Z M74.4958605,22.6716339 L87.2092433,37.5803965 L84.1556542,40.1842796 L71.4422714,25.2756702 L74.4958605,22.6716339 Z" id="Shape" fill="#000000"></path>
            <polygon id="Shape" fill="#FFFFFF" points="76.6161872 31.2566366 88.6556238 20.8695936 90.8981798 23.4662778 78.0325465 35.0334925 76.6161872 31.2564834"></polygon>
            <path d="M91.4243174,67.8370589 L79.1070312,82.5151481 L76.0871394,80.0031668 L88.4045788,65.3252307 L91.4243174,67.8370589 Z M78.8069719,18.9954104 L91.5203547,33.9040199 L88.4667657,36.5080562 L75.7533829,21.5994467 L78.8069719,18.9954104 Z M95.5977294,71.3083415 L83.28029,85.9864307 L80.2605514,83.4746025 L92.5779908,68.7965133 L95.5977294,71.3083415 Z M87.1603822,64.2902638 L74.8429428,78.9685061 L71.8232042,76.4565248 L84.1404904,61.7784356 L87.1603822,64.2902638 Z" id="Shape" fill="#000000"></path>
            <polygon id="Shape" fill="#FFFFFF" points="79.428381 67.6190986 91.4880359 77.9827066 89.2531384 80.5861302 75.9034891 69.5807416 79.428381 67.6190986"></polygon>
            <polygon id="Shape" fill="#000000" points="12.3711915 65.5676982 25.0845743 80.4764608 22.030832 83.0803439 9.31744924 68.1717345"></polygon>
            <polygon id="Shape" fill="#FFFFFF" points="10.1807131 77.8293839 22.2201496 67.4423409 24.4627057 70.039025 11.5970723 81.6062397 10.1807131 77.8292307"></polygon>
            <path d="M16.5923924,61.9680595 L29.3059283,76.876669 L26.2521861,79.4805521 L13.5388033,64.5719427 L16.5923924,61.9680595 Z M8.06008003,69.2440748 L20.7734628,84.1526843 L17.7198738,86.7565674 L5.0063378,71.8481111 L8.06008003,69.2440748 Z" id="Shape" fill="#000000"></path>
        </g>
    </g>
</svg>