<svg width="100px" height="100px" viewBox="0 0 100 100" version="1.1" xmlns="http://www.w3.org/2000/svg" xmlns:xlink="http://www.w3.org/1999/xlink">
    <g id="launchpad">
        <path d="M90.4156286,99.7689695 C95.5813361,99.7689695 99.7689695,95.5813361 99.7689695,90.4156286 C99.7689695,85.249921 95.5813361,81.0622877 90.4156286,81.0622877 C85.249921,81.0622877 81.0622877,85.249921 81.0622877,90.4156286 C81.0622877,95.5813361 85.249921,99.7689695 90.4156286,99.7689695 Z M49.8844847,99.7689695 C55.0501923,99.7689695 59.2378256,95.5813361 59.2378256,90.4156286 C59.2378256,85.249921 55.0501923,81.0622877 49.8844847,81.0622877 C44.7187772,81.0622877 40.5311438,85.249921 40.5311438,90.4156286 C40.5311438,95.5813361 44.7187772,99.7689695 49.8844847,99.7689695 Z M9.35334089,99.7689695 C14.5190484,99.7689695 18.7066818,95.5813361 18.7066818,90.4156286 C18.7066818,85.249921 14.5190484,81.0622877 9.35334089,81.0622877 C4.18763336,81.0622877 0,85.249921 0,90.4156286 C0,95.5813361 4.18763336,99.7689695 9.35334089,99.7689695 Z M90.4156286,59.2378256 C95.5813361,59.2378256 99.7689695,55.0501923 99.7689695,49.8844847 C99.7689695,44.7187772 95.5813361,40.5311438 90.4156286,40.5311438 C85.249921,40.5311438 81.0622877,44.7187772 81.0622877,49.8844847 C81.0622877,55.0501923 85.249921,59.2378256 90.4156286,59.2378256 Z M49.8844847,59.2378256 C55.0501923,59.2378256 59.2378256,55.0501923 59.2378256,49.8844847 C59.2378256,44.7187772 55.0501923,40.5311438 49.8844847,40.5311438 C44.7187772,40.5311438 40.5311438,44.7187772 40.5311438,49.8844847 C40.5311438,55.0501923 44.7187772,59.2378256 49.8844847,59.2378256 Z M9.35334089,59.2378256 C14.5190484,59.2378256 18.7066818,55.0501923 18.7066818,49.8844847 C18.7066818,44.7187772 14.5190484,40.5311438 9.35334089,40.5311438 C4.18763336,40.5311438 0,44.7187772 0,49.8844847 C0,55.0501923 4.18763336,59.2378256 9.35334089,59.2378256 Z M90.4156286,18.7066818 C95.5813361,18.7066818 99.7689695,14.5190484 99.7689695,9.35334089 C99.7689695,4.18763336 95.5813361,0 90.4156286,0 C85.249921,0 81.0622877,4.18763336 81.0622877,9.35334089 C81.0622877,14.5190484 85.249921,18.7066818 90.4156286,18.7066818 Z M49.8844847,18.7066818 C55.0501923,18.7066818 59.2378256,14.5190484 59.2378256,9.35334089 C59.2378256,4.18763336 55.0501923,0 49.8844847,0 C44.7187772,0 40.5311438,4.18763336 40.5311438,9.35334089 C40.5311438,14.5190484 44.7187772,18.7066818 49.8844847,18.7066818 Z M9.35334089,18.7066818 C14.5190484,18.7066818 18.7066818,14.5190484 18.7066818,9.35334089 C18.7066818,4.18763336 14.5190484,0 9.35334089,0 C4.18763336,0 0,4.18763336 0,9.35334089 C0,14.5190484 4.18763336,18.7066818 9.35334089,18.7066818 Z" id="launchpad"></path>
    </g>
</svg>
