<svg width="100px" height="100px" viewBox="0 0 100 100" version="1.1" xmlns="http://www.w3.org/2000/svg" xmlns:xlink="http://www.w3.org/1999/xlink">
    <path d="M56.2625,0 C39.04375,0 25.01875,14.0125 25.01875,31.25 L25.01875,37.5 L12.5,37.5 L12.5,81.25 C12.5,91.578125 20.921875,100 31.24375,100 L68.75,100 C79.103125,100 87.5,91.578125 87.5,81.25 L87.5,31.25 C87.5,14.0125 73.4875,0 56.2625,0 L56.2625,0 Z M37.51875,31.25 C37.51875,20.9 45.934375,12.5 56.2625,12.5 C66.603125,12.5 75,20.9 75,31.25 L75,37.5 L37.51875,37.5 L37.51875,31.25 L37.51875,31.25 Z M68.75,87.5 L31.24375,87.5 C27.8,87.5 24.99375,84.69375 24.99375,81.25 L24.99375,50 L75,50 L75,81.25 C75,84.69375 72.215625,87.5 68.75,87.5 L68.75,87.5 Z M56.25,68.75 C56.25,72.19375 53.44375,75 50,75 C46.534375,75 43.75,72.19375 43.75,68.75 C43.75,65.284375 46.534375,62.5 50,62.5 C53.44375,62.5 56.25,65.284375 56.25,68.75 L56.25,68.75 Z" id="Shape"></path>
</svg>
