<svg width="100px" height="100px" viewBox="0 0 100 100" version="1.1" xmlns="http://www.w3.org/2000/svg" xmlns:xlink="http://www.w3.org/1999/xlink">
    <path d="M9.09502271,15 L90.9049773,15 C95.9280196,15 100,19.0773778 100,24.097755 L100,75.2204268 C100,80.2449781 95.9247926,84.3181818 90.9049773,84.3181818 L9.09502271,84.3181818 C4.07198037,84.3181818 0,80.240804 0,75.2204268 L0,24.097755 C0,19.0732037 4.07520735,15 9.09502271,15 Z M3.97727273,73.8750933 C3.97727273,77.4437735 6.9243233,80.3409091 10.5559148,80.3409091 L89.4440852,80.3409091 C93.0753047,80.3409091 96.0227273,77.4450355 96.0227273,73.8750933 L96.0227273,25.4430885 C96.0227273,21.8744084 93.0756767,18.9772727 89.4440852,18.9772727 L10.5559148,18.9772727 C6.92469526,18.9772727 3.97727273,21.8731463 3.97727273,25.4430885 L3.97727273,73.8750933 Z M13.6363636,49.0909091 L86.8318182,49.0909091 L86.8318182,52.529161 L13.6363636,52.529161 L13.6363636,49.0909091 Z M13.6363636,58.7549315 L86.8318182,58.7549315 L86.8318182,62.1833204 L13.6363636,62.1833204 L13.6363636,58.7549315 Z M31.8181818,28.6363636 L57.0350302,28.6363636 L57.0350302,32.0454545 L31.8181818,32.0454545 L31.8181818,28.6363636 Z M31.8181818,34.3181818 L57.0350302,34.3181818 L57.0350302,37.7272727 L31.8181818,37.7272727 L31.8181818,34.3181818 Z M13.6363636,68.4090909 L86.8318182,68.4090909 L86.8318182,71.8453702 L13.6363636,71.8453702 L13.6363636,68.4090909 Z M12.5,26.3636364 L26.1363636,26.3636364 L26.1363636,40 L12.5,40 L12.5,26.3636364 Z" id="Combined-Shape"></path>
</svg>
