<svg width="100px" height="100px" viewBox="0 0 100 100" version="1.1" xmlns="http://www.w3.org/2000/svg" xmlns:xlink="http://www.w3.org/1999/xlink">
    <path d="M37.66,45.4446452 C36.1769231,45.124129 34.6430769,44.9460645 33.0646154,44.9460645 L21.7676923,44.9460645 C9.74615385,44.9476129 0,54.7427097 0,66.8247742 L0.0507692308,69.412129 C0.0507692308,72.7876129 2.77384615,75.5251613 6.13230769,75.5251613 L17.2707692,75.5251613 C17.8184615,62.0820645 26.0430769,50.6209032 37.66,45.4446452 Z M77.6923077,21.3548387 C77.6923077,10.6647742 69.0830769,2 58.4615385,2 C47.84,2 39.2307692,10.6647742 39.2307692,21.3548387 C39.2307692,32.0449032 47.84,40.7096774 58.4615385,40.7096774 C69.0830769,40.7096774 77.6923077,32.0449032 77.6923077,21.3548387 Z M36.3743077,7.69930323 C34.0158462,6.28872258 31.2712308,5.46343226 28.3281538,5.46343226 C19.6066154,5.46343226 12.5373846,12.578271 12.5373846,21.354529 C12.5373846,30.1307871 19.6066154,37.2471742 28.3281538,37.2471742 C31.2712308,37.2471742 34.0158462,36.4218839 36.3743077,35.0097548 C32.9112308,31.5104 30.7696923,26.6840774 30.7696923,21.354529 C30.7696923,16.0249806 32.9112308,11.2002065 36.3743077,7.69930323 Z M92.5530769,79.8899097 L89.0576923,79.8899097 L89.0576923,69.7154581 L80.8484615,69.7154581 L80.8484615,79.8899097 L70.8730769,79.8899097 L70.8730769,87.4708129 L80.8484615,87.4708129 L80.8484615,87.7293935 L80.8484615,97.7118452 L89.0576923,97.7118452 L89.0576923,87.4708129 L99.1607692,87.4708129 L99.1607692,79.8899097 L92.5530769,79.8899097 Z M64.5761538,79.8899097 L64.5761538,73.5523613 L70.8730769,73.5523613 L74.5530769,73.5523613 L74.5530769,69.7154581 L74.5530769,63.3779097 L80.8484615,63.3779097 L88.8515385,63.3779097 C84.1838462,55.2782968 75.4853846,49.8140387 65.5023077,49.8140387 L51.4946154,49.8140387 C36.5869231,49.8140387 24.5038462,61.9595871 24.5038462,76.9417806 L24.5684615,80.1500387 C24.5684615,84.335329 27.9453846,87.7293935 32.11,87.7293935 L64.5761538,87.7293935 L64.5761538,87.4708129 L64.5761538,79.8899097 Z" id="Combined-Shape"></path>
</svg>
