<svg width="100px" height="100px" viewBox="0 0 100 100" version="1.1" xmlns="http://www.w3.org/2000/svg" xmlns:xlink="http://www.w3.org/1999/xlink">
    <path d="M93.7676056,59.4562725 C93.7676056,66.3175976 91.1049941,72.7727388 86.2384776,78.0207722 L85.0450873,79.3077199 L85.6743854,80.9461333 C87.0942282,84.6427747 89.2881845,87.6780452 92.6431529,89.882755 C91.3322498,89.0631364 91.7377506,86.9651826 93.2379134,86.6647397 C89.2113895,87.272496 84.8156062,86.7195065 81.102208,84.4312122 L79.6807171,83.5552519 L78.2299482,84.3818186 C72.7205541,87.520762 66.2918579,89.207337 59.471831,89.207337 C40.4213015,89.207337 25.1760563,75.8140296 25.1760563,59.4562725 C25.1760563,43.0985155 40.4213015,29.705208 59.471831,29.705208 C78.4580289,29.705208 93.7676056,43.130079 93.7676056,59.4562725 Z M19.5422535,59.4562725 C19.5422535,79.0995359 37.460502,94.8411399 59.471831,94.8411399 C67.2653067,94.8411399 74.6556895,92.9022654 81.0188781,89.2768778 L78.1466183,89.2274841 C83.1464201,92.3084943 88.84856,93.0258234 94.2136311,92.2118219 C97.8062359,91.4955019 98.6729855,87.0111696 95.6845634,85.1408507 C93.4654271,83.681722 91.9604798,81.5996742 90.9335958,78.9261235 L88.3039906,79.9361284 L90.3695037,81.8514846 C96.1793723,75.5861438 99.4014085,67.7747533 99.4014085,59.4562725 C99.4014085,39.8419361 81.4168666,24.0714052 59.471831,24.0714052 C37.460502,24.0714052 19.5422535,39.8130092 19.5422535,59.4562725 Z M7.48239437,49.1565673 C3.19248826,44.5610875 0.698356808,38.666885 0.698356808,32.2731739 C0.698356808,17.3878153 14.4659624,5.29970521 31.3262911,5.29970521 C42.7992958,5.29970521 52.8755869,10.8942024 58.0633803,19.0861448 C35.3169014,19.0861448 16.5610329,34.8706191 14.665493,54.8509663 C10.3755869,57.4484114 5.68661972,57.3485097 2.99295775,56.9489027 C2.19483568,56.849001 1.99530516,55.8499836 2.69366197,55.4503767 C5.18779343,53.6521454 6.6842723,51.2545038 7.48239437,49.1565673 Z" id="Combined-Shape"></path>
</svg>
