<svg width="100px" height="100px" viewBox="0 0 100 100" version="1.1" xmlns="http://www.w3.org/2000/svg" xmlns:xlink="http://www.w3.org/1999/xlink">
    <path d="M87.428125,25 L75.0875,25 L87.5,12.55 L75.23125,0 L57.8375,0 L70.3,12.45 L57.53125,25 L42.771875,25 L55.45625,12.55 L42.91875,0 L25.24375,0 L37.69375,12.45 L24.928125,25 L12.403125,25 L25.096875,12.55 L12.55,0 L0,0 L0,100 L100,100 L100,0 L87.74375,0 L100,12.5 L87.428125,25 L87.428125,25 Z M87.5,87.5 L12.5,87.5 L12.5,75 L87.5,75 L87.5,87.5 L87.5,87.5 Z M87.5,62.5 L12.5,62.5 L12.5,50 L87.5,50 L87.5,62.5 L87.5,62.5 Z" id="Shape"></path>
</svg>
