<svg width="97px" height="100px" viewBox="0 0 97 100" version="1.1" xmlns="http://www.w3.org/2000/svg" xmlns:xlink="http://www.w3.org/1999/xlink">
    <g id="notification">
        <path id="Bell" d="M39.8391407,74.5436498 C41.2035747,82.6808999 48.2780936,88.8789671 56.8038133,88.8789671 C65.3295329,88.8789671 72.4040518,82.6808999 73.7684858,74.5436498 L92.7142159,74.5436498 C94.4459974,74.5436498 96.0057476,73.3394832 96.6422633,71.4988284 C97.2845134,69.6524396 96.8831071,68.2877174 95.6272788,66.9229951 C87.5246059,58.1153762 85.8903088,46.0278367 84.3018867,34.3302178 C82.1170896,18.2402577 79.6455736,-7.10542736e-15 56.805555,-7.10542736e-15 C33.9655364,-7.10542736e-15 31.4940205,18.2402577 29.3092233,34.3302178 C27.7208013,46.0278367 26.0807698,58.1153762 17.9838312,66.9229951 C16.7280029,68.2877174 16.3265966,69.6524396 16.9688467,71.4988284 C17.6053624,73.3394832 19.1651126,74.5436498 20.8968941,74.5436498 L39.8391407,74.5436498 L39.8391407,74.5436498 Z M64.9135682,74.5436498 C63.7300309,77.8807905 60.5411687,80.2777767 56.8038133,80.2777767 C53.0664578,80.2777767 49.8775956,77.8807905 48.6940583,74.5436498 L64.9135682,74.5436498 L64.9135682,74.5436498 Z M76.7656695,35.3065832 C78.1563439,45.4716264 78.5681235,56.9033903 85.7628959,65.9424594 L27.8482141,65.9424594 C35.0272431,56.9607316 35.4495183,45.4924778 36.8401928,35.3013704 C39.1020067,18.7453821 41.2746076,8.60119036 56.8029311,8.60119036 C72.3312547,8.60119036 74.5038555,18.7453821 76.7656695,35.3065832 L76.7656695,35.3065832 Z"></path>
        <path id="Tooltip" fill="#FC374B" d="M52.6780338,87.7777778 C57.3344555,87.7777778 61.1111111,84.1387994 61.1111111,79.649892 L61.1111111,47.0167747 C61.1111111,42.5235604 57.3354938,38.8888889 52.6780338,38.8888889 L8.43307735,38.8888889 C3.77665558,38.8888889 0,42.5278673 0,47.0167747 L0,79.649892 C0,84.1431063 3.77561734,87.7777778 8.43307735,87.7777778 L14.7867052,87.7777778 L27.9554706,99.0931614 C29.3615196,100.301322 31.6470165,100.303237 33.0552938,99.0931614 L46.2240592,87.7777778 L52.6780338,87.7777778 Z"></path>
        <path id="Label" fill="#FFFFFF" d="M23.2215712,72.2222222 L18.8628472,72.2222222 L18.8628472,60.2886285 L18.9051649,58.327908 L18.9756944,56.1838108 C18.2515878,56.9079174 17.7484823,57.3828114 17.4663628,57.6085069 L15.0965712,59.5128038 L12.9947917,56.8891059 L19.6386719,51.5993924 L23.2215712,51.5993924 L23.2215712,72.2222222 Z M28.7934028,63.4624566 C28.7934028,59.3811283 29.6562052,56.3436876 31.3818359,54.3500434 C33.1074667,52.3563992 35.691172,51.359592 39.1330295,51.359592 C40.3085273,51.359592 41.2301037,51.4301208 41.8977865,51.5711806 L41.8977865,55.0553385 C41.060832,54.8672589 40.233294,54.7732205 39.4151476,54.7732205 C37.9199144,54.7732205 36.699766,54.9989127 35.7546658,55.4503038 C34.8095656,55.901695 34.1019265,56.5693677 33.6317274,57.453342 C33.1615283,58.3373163 32.884115,59.5927291 32.7994792,61.2196181 L32.9828559,61.2196181 C33.9138501,59.6209411 35.404359,58.8216146 37.4544271,58.8216146 C39.2976076,58.8216146 40.7410972,59.3999508 41.7849392,60.5566406 C42.8287813,61.7133304 43.3506944,63.3119834 43.3506944,65.3526476 C43.3506944,67.5531794 42.7300409,69.295241 41.4887153,70.5788845 C40.2473896,71.8625281 38.5264867,72.5043403 36.3259549,72.5043403 C34.8025097,72.5043403 33.4742172,72.1516962 32.3410373,71.4463976 C31.2078575,70.7410989 30.3333002,69.7113783 29.7173394,68.3572049 C29.1013786,67.0030314 28.7934028,65.371465 28.7934028,63.4624566 L28.7934028,63.4624566 Z M36.2413194,69.0201823 C37.1723137,69.0201823 37.8870056,68.7075046 38.3854167,68.0821398 C38.8838277,67.4567749 39.1330295,66.565761 39.1330295,65.4090712 C39.1330295,64.4028451 38.9002844,63.6105715 38.4347873,63.0322266 C37.9692902,62.4538817 37.2663531,62.1647135 36.3259549,62.1647135 C35.4419805,62.1647135 34.6873223,62.4515307 34.0619575,63.0251736 C33.4365926,63.5988165 33.1239149,64.2664892 33.1239149,65.0282118 C33.1239149,66.1472857 33.417785,67.0923717 34.0055339,67.8634983 C34.5932827,68.6346248 35.3385372,69.0201823 36.2413194,69.0201823 L36.2413194,69.0201823 Z"></path>
    </g>
</svg>
