<svg width="100px" height="100px" viewBox="0 0 100 100" version="1.1" xmlns="http://www.w3.org/2000/svg" xmlns:xlink="http://www.w3.org/1999/xlink">
    <path d="M72.0933121,9.15434421 C59.8875198,-3.05144807 40.1132614,-3.05144807 27.9043442,9.15434421 C15.6985519,21.3538867 15.6985519,41.1468945 27.9043442,53.3401872 C27.9074691,53.3401872 50.0003906,74.9956252 50.0003906,99.9946877 C50.0003906,74.9956252 72.0933121,53.3401872 72.0933121,53.3401872 C84.3022293,41.1468945 84.3022293,21.3538867 72.0933121,9.15434421 L72.0933121,9.15434421 Z M50.0003906,43.746797 C43.0912747,43.746797 37.5008593,38.1563816 37.5008593,31.2472657 C37.5008593,24.3381498 43.0912747,18.7477345 50.0003906,18.7477345 C56.9095065,18.7477345 62.4999219,24.3381498 62.4999219,31.2472657 C62.4999219,38.1563816 56.9095065,43.746797 50.0003906,43.746797 L50.0003906,43.746797 Z" id="Shape"></path>
</svg>
