<svg width="100px" height="100px" viewBox="0 0 100 100" version="1.1" xmlns="http://www.w3.org/2000/svg" xmlns:xlink="http://www.w3.org/1999/xlink"
    <g id="sad" >
        <path d="M50.0000112,5 C25.1487483,5 5,25.1487491 5,49.999998 C5,74.8512469 25.1487483,94.999996 50.0000112,94.999996 C74.8512601,94.999996 95.0000092,74.8512469 95.0000092,49.999998 C95.0000092,25.1487491 74.8512601,5 50.0000112,5 L50.0000112,5 Z M50.0000112,10.6249997 C71.7125102,10.6249997 89.3750094,28.287499 89.3750094,49.999998 C89.3750094,71.712497 71.7125102,89.3749962 50.0000112,89.3749962 C28.2874981,89.3749962 10.6249989,71.712497 10.6249989,49.999998 C10.6249989,28.287499 28.2874981,10.6249997 50.0000112,10.6249997 L50.0000112,10.6249997 L50.0000112,10.6249997 Z M35.8008541,67.7434581 C35.4349237,68.8717388 34.3752264,69.6874971 33.1249987,69.6874971 C31.5716981,69.6874971 30.3124989,68.4282979 30.3124989,66.8749972 C30.3124989,66.2125447 30.5415292,65.6035847 30.9247264,65.1229814 C32.3659618,62.5342389 38.5411884,52.8124979 49.999998,52.8124979 C61.4588076,52.8124979 67.6340341,62.5342389 69.0752696,65.1229814 C69.4584668,65.6035847 69.6874971,66.2125447 69.6874971,66.8749972 C69.6874971,68.4282979 68.4282979,69.6874971 66.8749972,69.6874971 C65.6247696,69.6874971 64.5650722,68.8717388 64.1991418,67.7434581 C63.312882,66.2207347 58.373318,58.4374976 49.999998,58.4374976 C41.6266779,58.4374976 36.6871139,66.2207347 35.8008541,67.7434581 L35.8008541,67.7434581 L35.8008541,67.7434581 L35.8008541,67.7434581 Z" id="Icon"></path>
    </g>
</svg>
