<svg width="100px" height="100px" viewBox="0 0 100 100" version="1.1" xmlns="http://www.w3.org/2000/svg" xmlns:xlink="http://www.w3.org/1999/xlink">
    <path d="M99.1070522,90.4760045 C100.297649,91.6666016 100.297649,93.5978063 99.1070522,94.7915283 L94.7915283,99.1070522 C93.5978063,100.297649 91.6666016,100.297649 90.4760045,99.1070522 L60.2642126,68.8952603 C59.9360952,68.567143 59.7173504,68.179652 59.5704788,67.7671617 C53.3737491,72.2951806 45.7645524,74.9982422 37.4991211,74.9982422 C16.7902315,74.9982422 0,58.2080107 0,37.4991211 C0,16.7902315 16.7902315,0 37.4991211,0 C58.2080107,0 74.9982422,16.7902315 74.9982422,37.4991211 C74.9982422,45.7645524 72.2951806,53.3737491 67.7671617,59.5704788 C68.179652,59.7173504 68.567143,59.9329703 68.8952603,60.2642126 L99.1070522,90.4760045 L99.1070522,90.4760045 Z M37.4991211,12.499707 C23.6931947,12.499707 12.499707,23.6931947 12.499707,37.4991211 C12.499707,51.3050475 23.6931947,62.4985352 37.4991211,62.4985352 C51.3050475,62.4985352 62.4985352,51.3050475 62.4985352,37.4991211 C62.4985352,23.6931947 51.3050475,12.499707 37.4991211,12.499707 L37.4991211,12.499707 Z" id="Shape"></path>
</svg>
