<svg width="100px" height="100px" viewBox="0 0 100 100" version="1.1" xmlns="http://www.w3.org/2000/svg" xmlns:xlink="http://www.w3.org/1999/xlink">
    <g id="search">
        <path d="M60.4954552,67.1241376 C54.1453348,72.0604779 46.1659485,75 37.5,75 C16.7893219,75 0,58.2106781 0,37.5 C0,16.7893219 16.7893219,1.42108547e-14 37.5,1.42108547e-14 C58.2106781,1.42108547e-14 75,16.7893219 75,37.5 C75,46.1657214 72.060632,54.1449165 67.1245257,60.4949559 L98.6933299,92.0637601 C100.520468,93.8908978 100.349841,97.0280829 98.6891838,98.6887401 C97.0285266,100.349397 93.8924966,100.521179 92.0642038,98.6928862 L60.4954552,67.1241376 L60.4954552,67.1241376 Z M37.5,65.625 C53.0330086,65.625 65.625,53.0330086 65.625,37.5 C65.625,21.9669914 53.0330086,9.375 37.5,9.375 C21.9669914,9.375 9.375,21.9669914 9.375,37.5 C9.375,53.0330086 21.9669914,65.625 37.5,65.625 Z"></path>
    </g>
</svg>
