<svg width="100px" height="100px" viewBox="0 0 100 100" version="1.1" xmlns="http://www.w3.org/2000/svg" xmlns:xlink="http://www.w3.org/1999/xlink">
    <g id="settings">
        <path d="M96.4201238,39.1304348 C94.2462108,38.9130435 91.9636021,38.6956522 89.3549064,38.5869565 C88.4853412,35.6521739 87.2896891,32.826087 85.8766456,30.1086957 C87.615776,28.1521739 89.1375151,26.3043478 90.441863,24.673913 C91.2027325,23.6956522 91.3114282,22.3913043 90.5505586,21.4130435 C87.1809934,16.6304348 83.0505586,12.5 78.3766456,9.23913043 C77.3983847,8.47826087 75.9853412,8.58695652 75.115776,9.34782609 C73.4853412,10.6521739 71.6375151,12.2826087 69.6809934,13.9130435 C66.9636021,12.3913043 64.1375151,11.3043478 61.2027325,10.4347826 C61.0940369,7.82608696 60.8766456,5.43478261 60.6592543,3.36956522 C60.5505586,2.17391304 59.5722978,1.19565217 58.3766456,0.97826087 C52.615776,-4.94049246e-14 46.8549064,-4.94049246e-14 41.0940369,0.97826087 C39.8983847,1.19565217 38.9201238,2.17391304 38.8114282,3.36956522 C38.5940369,5.43478261 38.3766456,7.82608696 38.2679499,10.4347826 C35.3331673,11.3043478 32.5070804,12.5 29.7896891,13.9130435 C27.8331673,12.173913 25.9853412,10.6521739 24.3549064,9.34782609 C23.3766456,8.58695652 22.0722978,8.47826087 21.0940369,9.23913043 C16.3114282,12.6086957 12.1809934,16.7391304 8.92012384,21.4130435 C8.15925428,22.3913043 8.26794993,23.8043478 9.02881949,24.673913 C10.3331673,26.3043478 11.9636021,28.1521739 13.5940369,30.1086957 C12.0722978,32.826087 10.9853412,35.6521739 10.115776,38.5869565 C7.61577602,38.6956522 5.22447167,38.9130435 3.15925428,39.1304348 C1.9636021,39.2391304 0.985341233,40.2173913 0.767949928,41.4130435 C0.224471667,44.3478261 0.00708036298,47.173913 0.00708036298,50 C0.00708036298,52.826087 0.224471667,55.7608696 0.767949928,58.5869565 C0.985341233,59.7826087 1.9636021,60.7608696 3.15925428,60.8695652 C5.22447167,61.0869565 7.61577602,61.3043478 10.2244717,61.4130435 C11.0940369,64.3478261 12.2896891,67.173913 13.7027325,69.8913043 C11.9636021,71.8478261 10.441863,73.6956522 9.13751515,75.326087 C8.37664558,76.3043478 8.26794993,77.6086957 9.02881949,78.5869565 C12.3983847,83.3695652 16.5288195,87.5 21.2027325,90.7608696 C22.1809934,91.5217391 23.5940369,91.4130435 24.4636021,90.6521739 C26.0940369,89.3478261 27.941863,87.7173913 29.8983847,86.0869565 C32.615776,87.6086957 35.441863,88.6956522 38.3766456,89.5652174 C38.5940369,92.173913 38.7027325,94.5652174 38.9201238,96.6304348 C39.0288195,97.826087 40.0070804,98.8043478 41.2027325,99.0217391 C44.1375151,99.5652174 46.9636021,99.7826087 49.7896891,99.7826087 C52.615776,99.7826087 55.5505586,99.5652174 58.3766456,99.0217391 C59.5722978,98.8043478 60.5505586,97.826087 60.6592543,96.6304348 C60.8766456,94.5652174 61.0940369,92.173913 61.2027325,89.5652174 C64.1375151,88.6956522 66.9636021,87.5 69.6809934,86.0869565 C71.6375151,87.826087 73.4853412,89.3478261 75.115776,90.6521739 C76.0940369,91.4130435 77.3983847,91.5217391 78.3766456,90.7608696 C83.1592543,87.3913043 87.2896891,83.2608696 90.5505586,78.5869565 C91.3114282,77.6086957 91.2027325,76.1956522 90.441863,75.326087 C89.1375151,73.6956522 87.5070804,71.8478261 85.8766456,69.8913043 C87.3983847,67.173913 88.4853412,64.3478261 89.3549064,61.4130435 C91.9636021,61.1956522 94.3549064,61.0869565 96.4201238,60.8695652 C97.615776,60.7608696 98.5940369,59.7826087 98.8114282,58.5869565 C99.3549064,55.6521739 99.5722978,52.826087 99.5722978,50 C99.5722978,47.173913 99.3549064,44.2391304 98.8114282,41.4130435 C98.7027325,40.1086957 97.7244717,39.2391304 96.4201238,39.1304348 L96.4201238,39.1304348 Z M93.8114282,55.6521739 C91.7462108,55.8695652 89.4636021,55.9782609 87.0722978,56.0869565 C85.8766456,56.1956522 84.8983847,57.0652174 84.5722978,58.1521739 C83.7027325,61.8478261 82.1809934,65.4347826 80.2244717,68.6956522 C79.5722978,69.673913 79.6809934,71.0869565 80.5505586,71.9565217 C82.1809934,73.8043478 83.7027325,75.5434783 85.0070804,77.0652174 C82.7244717,80 80.0070804,82.7173913 77.0722978,85 C75.5505586,83.6956522 73.8114282,82.173913 71.9636021,80.5434783 C71.0940369,79.7826087 69.6809934,79.673913 68.7027325,80.2173913 C65.441863,82.2826087 61.8549064,83.6956522 58.1592543,84.5652174 C56.9636021,84.8913043 56.0940369,85.8695652 56.0940369,87.0652174 C55.9853412,89.4565217 55.7679499,91.7391304 55.6592543,93.8043478 C51.8549064,94.2391304 48.1592543,94.2391304 44.3549064,93.8043478 C44.1375151,91.7391304 44.0288195,89.4565217 43.9201238,87.0652174 C43.8114282,85.8695652 42.941863,84.8913043 41.8549064,84.5652174 C38.1592543,83.6956522 34.5722978,82.173913 31.3114282,80.2173913 C30.3331673,79.5652174 28.9201238,79.673913 28.0505586,80.5434783 C26.2027325,82.173913 24.4636021,83.6956522 22.941863,85 C20.0070804,82.7173913 17.2896891,80 15.0070804,77.0652174 C16.3114282,75.5434783 17.8331673,73.8043478 19.4636021,71.9565217 C20.2244717,71.0869565 20.3331673,69.673913 19.7896891,68.6956522 C17.7244717,65.4347826 16.3114282,61.8478261 15.441863,58.1521739 C15.115776,56.9565217 14.1375151,56.0869565 12.941863,56.0869565 C10.5505586,55.9782609 8.26794993,55.7608696 6.20273254,55.6521739 C5.98534123,53.8043478 5.87664558,51.8478261 5.87664558,50 C5.87664558,48.1521739 5.98534123,46.3043478 6.20273254,44.3478261 C8.26794993,44.1304348 10.5505586,44.0217391 12.941863,43.9130435 C14.1375151,43.8043478 15.115776,42.9347826 15.441863,41.8478261 C16.3114282,38.1521739 17.8331673,34.5652174 19.7896891,31.3043478 C20.441863,30.326087 20.3331673,28.9130435 19.4636021,28.0434783 C17.8331673,26.1956522 16.3114282,24.4565217 15.0070804,22.9347826 C17.2896891,20 20.0070804,17.2826087 22.941863,15 C24.4636021,16.3043478 26.2027325,17.826087 28.0505586,19.4565217 C28.9201238,20.2173913 30.3331673,20.326087 31.3114282,19.7826087 C34.5722978,17.7173913 38.1592543,16.3043478 41.8549064,15.4347826 C43.0505586,15.1086957 43.9201238,14.1304348 43.9201238,12.9347826 C44.0288195,10.5434783 44.2462108,8.26086957 44.3549064,6.19565217 C48.1592543,5.76086957 51.8549064,5.76086957 55.6592543,6.19565217 C55.8766456,8.26086957 55.9853412,10.5434783 56.0940369,12.9347826 C56.2027325,14.1304348 57.0722978,15.1086957 58.1592543,15.4347826 C61.8549064,16.3043478 65.441863,17.826087 68.7027325,19.7826087 C69.6809934,20.4347826 71.0940369,20.326087 71.9636021,19.4565217 C73.8114282,17.826087 75.5505586,16.3043478 77.0722978,15 C80.0070804,17.2826087 82.7244717,20 85.0070804,22.9347826 C83.7027325,24.4565217 82.1809934,26.1956522 80.5505586,28.0434783 C79.7896891,28.9130435 79.6809934,30.326087 80.2244717,31.3043478 C82.2896891,34.5652174 83.7027325,38.1521739 84.5722978,41.8478261 C84.8983847,43.0434783 85.8766456,43.9130435 87.0722978,43.9130435 C89.4636021,44.0217391 91.7462108,44.2391304 93.8114282,44.3478261 C94.0288195,46.1956522 94.1375151,48.1521739 94.1375151,50 C94.1375151,51.8478261 94.0288195,53.6956522 93.8114282,55.6521739 L93.8114282,55.6521739 Z"></path>
        <path d="M49.7896891,33.8043478 C40.8766456,33.8043478 33.5940369,41.0869565 33.5940369,50 C33.5940369,58.9130435 40.8766456,66.1956522 49.7896891,66.1956522 C58.7027325,66.1956522 65.9853412,58.9130435 65.9853412,50 C65.9853412,41.0869565 58.7027325,33.8043478 49.7896891,33.8043478 L49.7896891,33.8043478 Z M49.7896891,60.7608696 C43.9201238,60.7608696 39.0288195,55.9782609 39.0288195,50 C39.0288195,44.0217391 43.8114282,39.2391304 49.7896891,39.2391304 C55.7679499,39.2391304 60.5505586,44.0217391 60.5505586,50 C60.5505586,55.9782609 55.6592543,60.7608696 49.7896891,60.7608696 L49.7896891,60.7608696 Z" id="Shape"></path>
    </g>
</svg>
