<svg width="100px" height="100px" viewBox="0 0 100 100" version="1.1" xmlns="http://www.w3.org/2000/svg" xmlns:xlink="http://www.w3.org/1999/xlink">
    <path d="M84.375,68.75 C79.965625,68.75 75.984375,70.58125 73.14375,73.51875 L31.053125,52.475 C31.18125,51.66875 31.25,50.84375 31.25,50.003125 C31.25,49.1625 31.18125,48.334375 31.053125,47.53125 L73.14375,26.4875 C75.984375,29.425 79.965625,31.25625 84.375,31.25625 C93.003125,31.25625 100,24.259375 100,15.63125 C100,7.003125 93.003125,0.00625 84.375,0.00625 C75.746875,0.00625 68.75,7.003125 68.75,15.63125 C68.75,16.471875 68.81875,17.3 68.946875,18.103125 L26.85625,39.146875 C24.015625,36.209375 20.034375,34.378125 15.625,34.378125 C6.996875,34.378125 0,41.375 0,50.003125 C0,58.63125 6.996875,65.628125 15.625,65.628125 C20.034375,65.628125 24.015625,63.796875 26.85625,60.859375 L68.946875,81.903125 C68.81875,82.709375 68.75,83.534375 68.75,84.375 C68.75,93.003125 75.746875,100 84.375,100 C93.003125,100 100,93.003125 100,84.375 C100,75.746875 93.003125,68.75 84.375,68.75 L84.375,68.75 Z" id="Shape"></path>
</svg>
