<svg width="100px" height="100px" viewBox="0 0 100 100" version="1.1" xmlns="http://www.w3.org/2000/svg" xmlns:xlink="http://www.w3.org/1999/xlink">
    <g id="sprinklr">
        <path d="M7.02209065,21.366548 C7.31925278,16.2048522 11.1645814,11.6414895 16.34079,12.0222468 C17.7910429,12.1310347 19.50036,12.2713137 22.060526,14.4155789 C33.5838128,25.7180607 40.3753643,45.6806255 38.3231677,62.9292204 C38.2241137,63.7794831 37.3554859,63.7479918 37.1421387,62.9292204 C33.9063734,50.5703516 23.2567941,36.3449128 13.7907835,32.1107765 C9.3054133,30.1039275 6.73254808,26.4022788 7.02209065,21.366548" id="Fill-8" fill="#6BB653"></path>
        <path d="M75.2040682,5.0050746 C59.0049227,5.42304885 37.2282726,52.410798 49.6913029,95.0871142 C49.8411539,95.954554 50.5853291,95.7913723 50.6386659,94.9096184 C52.3733815,65.2134067 68.2042492,41.9700303 82.4248538,32.9406413 C88.0252168,29.3849974 89.5897628,25.027759 89.5897628,19.6341734 C89.5897628,11.7785477 83.7354149,4.78463613 75.2040682,5.0050746 L75.2040682,5.0050746 Z" id="Fill-10" fill="#4FBDD2"></path>
        <path d="M0.0173859416,63.0199307 C0.370424704,68.9574553 4.77197992,71.8632352 8.83065576,71.8632352 C18.0782394,71.8632352 29.6447036,76.7672756 36.4489544,83.1370886 C37.0128005,83.6667136 37.1143943,83.4892176 36.7461164,82.0492105 C33.995462,71.1904684 19.2694278,53 8.55635227,53 C3.01440566,53 -0.269616793,58.1903241 0.0173859416,63.0199307" id="Fill-12" fill="#F0A82E"></path>
        <path d="M99.945679,63.0199307 C99.5926402,68.9574553 95.191085,71.8632352 91.1324092,71.8632352 C81.8848254,71.8632352 70.3183612,76.7672756 63.5141106,83.1370886 C62.9502645,83.6667136 62.8486706,83.4892176 63.2169485,82.0492105 C65.967603,71.1904684 80.6936371,53 91.4067126,53 C96.9486593,53 100.232682,58.1903241 99.945679,63.0199307" id="Fill-14" fill="#2D7FB6"></path>
    </g>
</svg>
