<svg width="100px" height="100px" viewBox="0 0 100 100" version="1.1" xmlns="http://www.w3.org/2000/svg" xmlns:xlink="http://www.w3.org/1999/xlink">
    <path d="M95.3125,0 L57.8125,0 C55.234375,0 51.634375,1.490625 49.809375,3.315625 L3.3125,49.8125 C1.490625,51.634375 1.490625,54.61875 3.3125,56.440625 L43.559375,96.6875 C45.38125,98.509375 48.365625,98.509375 50.1875,96.6875 L96.684375,50.190625 C98.50625,48.36875 100,44.765625 100,42.1875 L100,4.6875 C100,2.109375 97.890625,0 95.3125,0 L95.3125,0 Z M71.875,37.5 C66.696875,37.5 62.5,33.303125 62.5,28.125 C62.5,22.946875 66.696875,18.75 71.875,18.75 C77.053125,18.75 81.25,22.946875 81.25,28.125 C81.25,33.303125 77.053125,37.5 71.875,37.5 L71.875,37.5 Z" id="Shape"></path>
</svg>
