<svg width="100px" height="100px" viewBox="0 0 100 100" version="1.1" xmlns="http://www.w3.org/2000/svg" xmlns:xlink="http://www.w3.org/1999/xlink">
    <path d="M54.842,4.01996354 C54.742,4.00998177 54.642,4 54.542,4 C51.882,4 50.042,6.15107106 50.042,8.80522325 C50.042,11.4204465 51.062,13.5465632 55.062,13.6014629 L55.062,13.6164356 C74.061,13.8759615 90.68,30.0753733 90.68,49.9580575 C90.68,70.00045 74.191,86.5392419 54.112,86.5392419 C34.948,86.5392419 19.039,72.105605 17.638,53.1422416 L26.093,53.1422416 L13.044,31.4887917 L0,53.1432398 L8,53.1432398 C9.414,77.0974873 29.483,96.141703 53.952,96.141703 C79.341,96.141703 100,75.4205502 100,50.073846 C100,25.0305876 79.82,4.49409753 54.842,4.01996354 Z M54.112,73.2944336 C55.702,73.2944336 57.002,74.5820817 57.002,76.1791646 C57.002,77.7772457 55.702,79.0638956 54.112,79.0638956 C52.517,79.0638956 51.222,77.7772457 51.222,76.1791646 C51.223,74.5820817 52.518,73.2944336 54.112,73.2944336 Z M73.201,29.7170278 C74.801,29.7170278 76.091,31.0096668 76.091,32.6017588 C76.091,34.1938509 74.801,35.481499 73.201,35.481499 C71.611,35.481499 70.321,34.1938509 70.321,32.6017588 C70.321,31.0096668 71.611,29.7170278 73.201,29.7170278 Z M73.201,64.3018585 C74.801,64.3018585 76.091,65.5994884 76.091,67.1865896 C76.091,68.7736907 74.801,70.0723188 73.201,70.0723188 C71.611,70.0723188 70.321,68.7736907 70.321,67.1865896 C70.321,65.5994884 71.611,64.3018585 73.201,64.3018585 Z M79.621,47.3338506 C81.221,47.3338506 82.511,48.6214987 82.511,50.2135908 C82.511,51.8056828 81.221,53.0983218 79.621,53.0983218 C78.02,53.0983218 76.741,51.8056828 76.741,50.2135908 C76.741,48.6214987 78.021,47.3338506 79.621,47.3338506 Z M59.062,26.4030807 C59.062,24.1422102 57.243,22.2007563 54.983,22.2007563 L54.102,22.2007563 C51.842,22.2007563 50.063,24.1422102 50.063,26.4030807 L50.063,50.5629527 L38.208,62.3753772 C36.458,64.1221867 36.548,66.9570089 38.203,68.6938366 C39.863,70.4506278 42.772,70.4506278 44.522,68.6938366 L57.622,55.6177201 C57.722,55.5079207 57.802,55.3981212 57.902,55.2983035 C58.622,54.5546618 59.061,53.5465032 59.061,52.433536 L59.061,26.4030807 L59.062,26.4030807 Z" id="Combined-Shape"></path>
</svg>
