<svg width="100px" height="100px" viewBox="0 0 100 100" version="1.1" xmlns="http://www.w3.org/2000/svg" xmlns:xlink="http://www.w3.org/1999/xlink">
    <path d="M17.3078971,93.7551388 C17.3078971,97.2040344 19.8993536,99.9988889 23.0950026,99.9988889 L75.1933754,99.9988889 C78.4018454,99.9988889 80.9916993,97.2057692 80.9916993,93.7551388 L80.9916993,29.492568 L17.3078971,29.492568 L17.3078971,93.7551388 L17.3078971,93.7551388 Z M63.2441485,35.6842724 L72.2188898,35.6842724 L72.2188898,87.651912 C72.2188898,90.3340009 70.2059835,92.5025721 67.7395323,92.5025721 C65.2570548,92.5025721 63.2457512,90.3340009 63.2457512,87.651912 L63.2457512,35.6842724 L63.2441485,35.6842724 Z M44.6632289,35.6842724 L53.6443807,35.6842724 L53.6443807,87.651912 C53.6443807,90.3340009 51.6346797,92.5025721 49.1538048,92.5025721 C46.6729299,92.5025721 44.6632289,90.3340009 44.6632289,87.651912 L44.6632289,35.6842724 L44.6632289,35.6842724 Z M25.9492908,35.6842724 L34.9176215,35.6842724 L34.9176215,87.651912 C34.9176215,90.3340009 32.9063179,92.5025721 30.4334561,92.5025721 C27.9605944,92.5025721 25.9508934,90.3340009 25.9508934,87.651912 L25.9508934,35.6842724 L25.9492908,35.6842724 Z M81.9580866,6.68093408 L59.2311571,6.68093408 L59.2311571,3.12100764 C59.2311571,3.12100764 59.1285886,0 56.2342346,0 L43.8218469,0 C40.9306981,0 41.0300613,3.12100764 41.0300613,3.12100764 L41.0300613,6.68093408 L18.2887081,6.68093408 C15.0946618,6.68093408 12.5,9.47925832 12.5,12.9281539 L12.5,23.1967721 L87.75,23.1967721 L87.75,12.9281539 C87.7483974,9.47925832 85.1553382,6.68093408 81.9580866,6.68093408 Z" id="Combined-Shape"></path>
</svg>
