<svg width="100px" height="100px" viewBox="0 0 100 100" version="1.1" xmlns="http://www.w3.org/2000/svg" xmlns:xlink="http://www.w3.org/1999/xlink">
    <g id="twitter" >
        <path d="M84.8438356,75.0547945 C88.9808219,77.330137 91.669863,80.8465753 93.3246575,85.190411 C89.6013699,82.9150685 85.6712329,81.4671233 81.3273973,80.8465753 C77.6041096,84.569863 73.0534247,86.6383562 67.6753425,86.6383562 C62.5041096,86.6383562 58.160274,84.7767123 54.6438356,81.260274 C51.1273973,77.7438356 49.2657534,73.1931507 49.2657534,68.2287671 C49.2657534,66.7808219 49.4726027,65.3328767 49.6794521,64.0917808 C42.0260274,64.2986301 34.7863014,66.160274 28.1671233,69.6767123 C21.5479452,73.1931507 15.7561644,77.7438356 11.2054795,83.5356164 C9.34383562,80.639726 8.51643836,77.5369863 8.51643836,74.0205479 C8.51643836,67.4013699 11.4123288,62.230137 16.9972603,58.5068493 C13.8945205,58.7136986 10.9986301,59.5410959 8.30958904,60.9890411 C8.30958904,56.2315068 9.75753425,52.3013699 12.6534247,48.7849315 C15.5493151,45.4753425 19.0657534,43.2 23.409589,42.3726027 C21.7547945,41.9589041 20.1,41.7520548 18.6520548,41.7520548 C17.4109589,41.7520548 16.3767123,41.7520548 15.1356164,41.9589041 C16.3767123,38.2356164 18.4452055,35.1328767 21.7547945,32.8575342 C25.0643836,30.3753425 28.5808219,29.1342466 32.5109589,29.1342466 C25.6849315,23.7561644 18.0315068,21.0671233 9.34383562,21.0671233 C7.89589041,21.0671233 6.44794521,21.2739726 5,21.4808219 C13.6876712,15.8958904 23.2027397,13 33.7520548,13 C42.0260274,13 49.4726027,14.6547945 56.2986301,17.7575342 C63.1246575,20.860274 68.709589,24.9972603 73.0534247,30.1684932 C77.3972603,35.339726 80.7068493,40.9246575 83.1890411,47.130137 C85.4643836,53.3356164 86.7054795,59.5410959 86.7054795,65.9534247 L86.7054795,68.4356164 C90.0150685,70.9178082 93.1178082,74.0205479 95.6,77.9506849 C92.290411,76.5027397 88.5671233,75.4684932 84.8438356,75.0547945 Z" id="Shape" transform="translate(50.300000, 49.819178) scale(1, -1) translate(-50.300000, -49.819178) "></path>
    </g>
</svg>
