<svg width="100px" height="100px" viewBox="0 0 100 100" version="1.1" xmlns="http://www.w3.org/2000/svg" xmlns:xlink="http://www.w3.org/1999/xlink">
    <path d="M56.2625,0 C39.03125,0 25.01875,14.025 25.01875,31.25 L37.51875,31.25 C37.51875,20.921875 45.921875,12.5 56.2625,12.5 C66.603125,12.5 75,20.921875 75,31.25 L75,37.5 L12.5,37.5 L12.5,81.25 C12.5,91.6 20.909375,100 31.24375,100 L68.75,100 C79.090625,100 87.5,91.6 87.5,81.25 L87.5,31.25 C87.5,14.025 73.4875,0 56.2625,0 L56.2625,0 Z M68.75,87.5 L31.24375,87.5 C27.8,87.5 24.99375,84.703125 24.99375,81.25 L24.99375,50 L75,50 L75,81.25 C75,84.703125 72.19375,87.5 68.75,87.5 L68.75,87.5 Z M56.25,68.75 C56.25,72.215625 53.453125,75 50,75 C46.546875,75 43.75,72.215625 43.75,68.75 C43.75,65.30625 46.546875,62.5 50,62.5 C53.453125,62.5 56.25,65.30625 56.25,68.75 L56.25,68.75 Z" id="Shape"></path>
</svg>
