<svg width="100px" height="100px" viewBox="0 0 100 100" version="1.1" xmlns="http://www.w3.org/2000/svg" xmlns:xlink="http://www.w3.org/1999/xlink">
    <g id="us" stroke="none" stroke-width="1" fill="none" fill-rule="evenodd">
        <g id="us">
            <g id="Group" transform="translate(0.000000, 13.000000)">
                <g id="Shape" fill="#BD3D44">
                    <path d="M0,0 L133.529923,0 L133.529923,5.40870667 L0,5.40870667 L0,0 Z M0,10.8174133 L133.529923,10.8174133 L133.529923,16.22612 L0,16.22612 L0,10.8174133 Z M0,21.6348267 L133.529923,21.6348267 L133.529923,27.0435333 L0,27.0435333 L0,21.6348267 Z M0,32.45224 L133.529923,32.45224 L133.529923,37.8609467 L0,37.8609467 L0,32.45224 Z M0,43.2696533 L133.529923,43.2696533 L133.529923,48.67836 L0,48.67836 L0,43.2696533 Z M0,54.0870667 L133.529923,54.0870667 L133.529923,59.4957733 L0,59.4957733 L0,54.0870667 Z M0,64.90448 L133.529923,64.90448 L133.529923,70.3131866 L0,70.3131866 L0,64.90448 Z"></path>
                </g>
                <g transform="translate(0.000000, 5.355835)" id="Shape" fill="#FFFFFF">
                    <path d="M0,0.0528717041 L133.529923,0.0528717041 L133.529923,5.46157837 L0,5.46157837 L0,0.0528717041 Z M0,10.870285 L133.529923,10.870285 L133.529923,16.2789917 L0,16.2789917 L0,10.870285 Z M0,21.6876984 L133.529923,21.6876984 L133.529923,27.096405 L0,27.096405 L0,21.6876984 Z M0,32.5051117 L133.529923,32.5051117 L133.529923,37.9138184 L0,37.9138184 L0,32.5051117 Z M0,43.322525 L133.529923,43.322525 L133.529923,48.7312317 L0,48.7312317 L0,43.322525 Z M0,54.1399384 L133.529923,54.1399384 L133.529923,59.548645 L0,59.548645 L0,54.1399384 Z"></path>
                </g>
            </g>
            <polygon id="Shape" fill="#192F5D" points="0 13 53.4114202 13 53.4114202 50.86026 0 50.86026"></polygon>
            <g id="Group" transform="translate(2.333455, 14.510620)" fill="#FFFFFF">
                <path d="M2.11754209,0.109863281 L2.60344985,1.60620117 L4.17619876,1.60620117 L2.90377928,2.53111267 L3.3898243,4.02745056 L2.11740483,3.10267639 L0.845259883,4.02745056 L1.33116764,2.53111267 L0.0588854319,1.60620117 L1.63149707,1.60620117 L2.11754209,0.109863281 Z M11.0193997,0.109863281 L11.5054447,1.60620117 L13.0781936,1.60620117 L11.8057742,2.53111267 L12.2918192,4.02745056 L11.0193997,3.10267639 L9.74725476,4.02745056 L10.2331625,2.53111267 L8.96088031,1.60620117 L10.5334919,1.60620117 L11.0193997,0.109863281 Z M19.9216691,0.109863281 L20.4075769,1.60620117 L21.9803258,1.60620117 L20.7079063,2.53111267 L21.1939513,4.02745056 L19.9216691,3.10267639 L18.6493869,4.02745056 L19.1352947,2.53111267 L17.8630124,1.60620117 L19.4357613,1.60620117 L19.9216691,0.109863281 Z M28.8233895,0.109863281 L29.3092972,1.60620117 L30.8819089,1.60620117 L29.6096266,2.53111267 L30.0955344,4.02745056 L28.8233895,3.10267639 L27.55097,4.02745056 L28.037015,2.53111267 L26.7645955,1.60620117 L28.3373444,1.60620117 L28.8233895,0.109863281 Z M37.7255216,0.109863281 L38.2114294,1.60620117 L39.7841783,1.60620117 L38.5117588,2.53111267 L38.9978038,4.02745056 L37.7253843,3.10267639 L36.4532394,4.02745056 L36.9391471,2.53111267 L35.6668649,1.60620117 L37.2394766,1.60620117 L37.7255216,0.109863281 Z M46.6276537,0.109863281 L47.1135615,1.60620117 L48.6863104,1.60620117 L47.4138909,2.53111267 L47.8999359,4.02745056 L46.6276537,3.10267639 L45.3552343,4.02745056 L45.8414165,2.53111267 L44.5689971,1.60620117 L46.141746,1.60620117 L46.6276537,0.109863281 Z" id="Shape"></path>
                <path d="M6.56867679,3.89602661 L7.05458455,5.3923645 L8.62733346,5.3923645 L7.35491398,6.31713867 L7.84109627,7.81361389 L6.56867679,6.88883972 L5.29639458,7.81361389 L5.78230234,6.31713867 L4.51002013,5.3923645 L6.08276903,5.3923645 L6.56867679,3.89602661 Z M15.4703971,3.89602661 L15.9563049,5.3923645 L17.5289165,5.3923645 L16.2566343,6.31713867 L16.7425421,7.81361389 L15.4703971,6.88883972 L14.1979777,7.81361389 L14.6840227,6.31713867 L13.4116032,5.3923645 L14.9843521,5.3923645 L15.4703971,3.89602661 Z M24.3725293,3.89602661 L24.858437,5.3923645 L26.4311859,5.3923645 L25.1587665,6.31713867 L25.6448115,7.81361389 L24.372392,6.88883972 L23.1002471,7.81361389 L23.5861548,6.31713867 L22.3138726,5.3923645 L23.8864843,5.3923645 L24.3725293,3.89602661 Z M33.2746614,3.89602661 L33.7605692,5.3923645 L35.3333181,5.3923645 L34.0608986,6.31713867 L34.5469436,7.81361389 L33.2746614,6.88883972 L32.0022419,7.81361389 L32.4885615,6.31713867 L31.216142,5.3923645 L32.7888909,5.3923645 L33.2746614,3.89602661 Z M42.1763818,3.89602661 L42.6622895,5.3923645 L44.2349012,5.3923645 L42.962619,6.31713867 L43.4485267,7.81361389 L42.1763818,6.88883972 L40.9039623,7.81361389 L41.3900073,6.31713867 L40.1175878,5.3923645 L41.6903367,5.3923645 L42.1763818,3.89602661 Z" id="Shape"></path>
                <g transform="translate(0.000000, 7.553101)" id="Shape">
                    <path d="M2.11754209,0.128952026 L2.60344985,1.62528992 L4.17619876,1.62528992 L2.90377928,2.55020142 L3.3898243,4.04653931 L2.11740483,3.12176514 L0.845259883,4.04653931 L1.33116764,2.55020142 L0.0588854319,1.62528992 L1.63149707,1.62528992 L2.11754209,0.128952026 Z M11.0193997,0.128952026 L11.5054447,1.62528992 L13.0781936,1.62528992 L11.8057742,2.55020142 L12.2918192,4.04653931 L11.0193997,3.12176514 L9.74725476,4.04653931 L10.2331625,2.55020142 L8.96088031,1.62528992 L10.5334919,1.62528992 L11.0193997,0.128952026 Z M19.9216691,0.128952026 L20.4075769,1.62528992 L21.9803258,1.62528992 L20.7079063,2.55020142 L21.1939513,4.04653931 L19.9216691,3.12176514 L18.6493869,4.04653931 L19.1352947,2.55020142 L17.8630124,1.62528992 L19.4357613,1.62528992 L19.9216691,0.128952026 Z M28.8233895,0.128952026 L29.3092972,1.62528992 L30.8819089,1.62528992 L29.6096266,2.55020142 L30.0955344,4.04653931 L28.8233895,3.12176514 L27.55097,4.04653931 L28.037015,2.55020142 L26.7645955,1.62528992 L28.3373444,1.62528992 L28.8233895,0.128952026 Z M37.7255216,0.128952026 L38.2114294,1.62528992 L39.7841783,1.62528992 L38.5117588,2.55020142 L38.9978038,4.04653931 L37.7253843,3.12176514 L36.4532394,4.04653931 L36.9391471,2.55020142 L35.6668649,1.62528992 L37.2394766,1.62528992 L37.7255216,0.128952026 Z M46.6276537,0.128952026 L47.1135615,1.62528992 L48.6863104,1.62528992 L47.4138909,2.55020142 L47.8999359,4.04653931 L46.6276537,3.12176514 L45.3552343,4.04653931 L45.8414165,2.55020142 L44.5689971,1.62528992 L46.141746,1.62528992 L46.6276537,0.128952026 Z"></path>
                    <path d="M6.56867679,3.91497803 L7.05458455,5.41145325 L8.62733346,5.41145325 L7.35491398,6.33622742 L7.84109627,7.83270264 L6.56867679,6.90792847 L5.29639458,7.83270264 L5.78230234,6.33622742 L4.51002013,5.41145325 L6.08276903,5.41145325 L6.56867679,3.91497803 Z M15.4703971,3.91497803 L15.9563049,5.41145325 L17.5289165,5.41145325 L16.2566343,6.33622742 L16.7425421,7.83270264 L15.4703971,6.90792847 L14.1979777,7.83270264 L14.6840227,6.33622742 L13.4116032,5.41145325 L14.9843521,5.41145325 L15.4703971,3.91497803 Z M24.3725293,3.91497803 L24.858437,5.41145325 L26.4311859,5.41145325 L25.1587665,6.33622742 L25.6448115,7.83270264 L24.372392,6.90792847 L23.1002471,7.83270264 L23.5861548,6.33622742 L22.3138726,5.41145325 L23.8864843,5.41145325 L24.3725293,3.91497803 Z M33.2746614,3.91497803 L33.7605692,5.41145325 L35.3333181,5.41145325 L34.0608986,6.33622742 L34.5469436,7.83270264 L33.2746614,6.90792847 L32.0022419,7.83270264 L32.4884242,6.33622742 L31.2160048,5.41145325 L32.7887537,5.41145325 L33.2746614,3.91497803 Z M42.1763818,3.91497803 L42.6622895,5.41145325 L44.2349012,5.41145325 L42.962619,6.33622742 L43.4485267,7.83270264 L42.1763818,6.90792847 L40.9039623,7.83270264 L41.3900073,6.33622742 L40.1175878,5.41145325 L41.6903367,5.41145325 L42.1763818,3.91497803 Z"></path>
                </g>
                <g transform="translate(0.000000, 15.243530)" id="Shape">
                    <path d="M2.11754209,0.0107116699 L2.60344985,1.50704956 L4.17619876,1.50704956 L2.90377928,2.43196106 L3.3898243,3.92829895 L2.11740483,3.00352478 L0.845259883,3.92829895 L1.33116764,2.43196106 L0.0588854319,1.50704956 L1.63149707,1.50704956 L2.11754209,0.0107116699 Z M11.0193997,0.0107116699 L11.5054447,1.50704956 L13.0781936,1.50704956 L11.8057742,2.43196106 L12.2918192,3.92829895 L11.0193997,3.00352478 L9.74725476,3.92829895 L10.2331625,2.43196106 L8.96088031,1.50704956 L10.5334919,1.50704956 L11.0193997,0.0107116699 Z M19.9216691,0.0107116699 L20.4075769,1.50704956 L21.9803258,1.50704956 L20.7079063,2.43196106 L21.1939513,3.92829895 L19.9216691,3.00352478 L18.6493869,3.92829895 L19.1352947,2.43196106 L17.8630124,1.50704956 L19.4357613,1.50704956 L19.9216691,0.0107116699 Z M28.8233895,0.0107116699 L29.3092972,1.50704956 L30.8819089,1.50704956 L29.6096266,2.43196106 L30.0955344,3.92829895 L28.8233895,3.00352478 L27.55097,3.92829895 L28.037015,2.43196106 L26.7645955,1.50704956 L28.3373444,1.50704956 L28.8233895,0.0107116699 Z M37.7255216,0.0107116699 L38.2114294,1.50704956 L39.7841783,1.50704956 L38.5117588,2.43196106 L38.9978038,3.92829895 L37.7253843,3.00352478 L36.4532394,3.92829895 L36.9391471,2.43196106 L35.6668649,1.50704956 L37.2394766,1.50704956 L37.7255216,0.0107116699 Z M46.6276537,0.0107116699 L47.1135615,1.50704956 L48.6863104,1.50704956 L47.4138909,2.43196106 L47.8999359,3.92829895 L46.6276537,3.00352478 L45.3552343,3.92829895 L45.8414165,2.43196106 L44.5689971,1.50704956 L46.141746,1.50704956 L46.6276537,0.0107116699 Z"></path>
                    <path d="M6.56867679,3.79673767 L7.05458455,5.29321289 L8.62733346,5.29321289 L7.35491398,6.21798706 L7.84109627,7.71446228 L6.56867679,6.78968811 L5.29639458,7.71446228 L5.78230234,6.21798706 L4.51002013,5.29321289 L6.08276903,5.29321289 L6.56867679,3.79673767 Z M15.4703971,3.79673767 L15.9563049,5.29321289 L17.5289165,5.29321289 L16.2566343,6.21798706 L16.7425421,7.71446228 L15.4703971,6.78968811 L14.1979777,7.71446228 L14.6840227,6.21798706 L13.4116032,5.29321289 L14.9843521,5.29321289 L15.4703971,3.79673767 Z M24.3725293,3.79673767 L24.858437,5.29321289 L26.4311859,5.29321289 L25.1587665,6.21798706 L25.6448115,7.71446228 L24.372392,6.78968811 L23.1002471,7.71446228 L23.5861548,6.21798706 L22.3138726,5.29321289 L23.8864843,5.29321289 L24.3725293,3.79673767 Z M33.2746614,3.79673767 L33.7605692,5.29321289 L35.3333181,5.29321289 L34.0608986,6.21798706 L34.5469436,7.71446228 L33.2746614,6.78968811 L32.0022419,7.71446228 L32.4884242,6.21798706 L31.2160048,5.29321289 L32.7887537,5.29321289 L33.2746614,3.79673767 Z M42.1763818,3.79673767 L42.6622895,5.29321289 L44.2349012,5.29321289 L42.962619,6.21798706 L43.4485267,7.71446228 L42.1763818,6.78968811 L40.9039623,7.71446228 L41.3900073,6.21798706 L40.1175878,5.29321289 L41.6903367,5.29321289 L42.1763818,3.79673767 Z"></path>
                </g>
                <g transform="translate(0.000000, 22.796631)" id="Shape">
                    <path d="M2.11754209,0.029800415 L2.60344985,1.52613831 L4.17619876,1.52613831 L2.90377928,2.4510498 L3.3898243,3.9473877 L2.11740483,3.02261353 L0.845259883,3.9473877 L1.33116764,2.4510498 L0.0588854319,1.52613831 L1.63149707,1.52613831 L2.11754209,0.029800415 Z M11.0193997,0.029800415 L11.5054447,1.52613831 L13.0781936,1.52613831 L11.8057742,2.4510498 L12.2918192,3.9473877 L11.0193997,3.02261353 L9.74725476,3.9473877 L10.2331625,2.4510498 L8.96088031,1.52613831 L10.5334919,1.52613831 L11.0193997,0.029800415 Z M19.9216691,0.029800415 L20.4075769,1.52613831 L21.9803258,1.52613831 L20.7079063,2.4510498 L21.1939513,3.9473877 L19.9216691,3.02261353 L18.6493869,3.9473877 L19.1352947,2.4510498 L17.8630124,1.52613831 L19.4357613,1.52613831 L19.9216691,0.029800415 Z M28.8233895,0.029800415 L29.3092972,1.52613831 L30.8819089,1.52613831 L29.6096266,2.4510498 L30.0955344,3.9473877 L28.8233895,3.02261353 L27.55097,3.9473877 L28.037015,2.4510498 L26.7645955,1.52613831 L28.3373444,1.52613831 L28.8233895,0.029800415 Z M37.7255216,0.029800415 L38.2114294,1.52613831 L39.7841783,1.52613831 L38.5117588,2.4510498 L38.9978038,3.9473877 L37.7253843,3.02261353 L36.4532394,3.9473877 L36.9391471,2.4510498 L35.6668649,1.52613831 L37.2394766,1.52613831 L37.7255216,0.029800415 Z M46.6276537,0.029800415 L47.1135615,1.52613831 L48.6863104,1.52613831 L47.4138909,2.4510498 L47.8999359,3.9473877 L46.6276537,3.02261353 L45.3552343,3.9473877 L45.8414165,2.4510498 L44.5689971,1.52613831 L46.141746,1.52613831 L46.6276537,0.029800415 Z"></path>
                    <path d="M6.56867679,3.81582642 L7.05458455,5.31230164 L8.62733346,5.31230164 L7.35491398,6.23707581 L7.84109627,7.73355103 L6.56867679,6.80877686 L5.29639458,7.73355103 L5.78230234,6.23707581 L4.51002013,5.31230164 L6.08276903,5.31230164 L6.56867679,3.81582642 Z M15.4703971,3.81582642 L15.9563049,5.31230164 L17.5289165,5.31230164 L16.2566343,6.23707581 L16.7425421,7.73355103 L15.4703971,6.80877686 L14.1979777,7.73355103 L14.6840227,6.23707581 L13.4116032,5.31230164 L14.9843521,5.31230164 L15.4703971,3.81582642 Z M24.3725293,3.81582642 L24.858437,5.31230164 L26.4311859,5.31230164 L25.1587665,6.23707581 L25.6448115,7.73355103 L24.372392,6.80877686 L23.1002471,7.73355103 L23.5861548,6.23707581 L22.3138726,5.31230164 L23.8864843,5.31230164 L24.3725293,3.81582642 Z M33.2746614,3.81582642 L33.7605692,5.31230164 L35.3333181,5.31230164 L34.0608986,6.23707581 L34.5469436,7.73355103 L33.2746614,6.80877686 L32.0022419,7.73355103 L32.4884242,6.23707581 L31.2160048,5.31230164 L32.7887537,5.31230164 L33.2746614,3.81582642 Z M42.1763818,3.81582642 L42.6622895,5.31230164 L44.2349012,5.31230164 L42.962619,6.23707581 L43.4485267,7.73355103 L42.1763818,6.80877686 L40.9039623,7.73355103 L41.3900073,6.23707581 L40.1175878,5.31230164 L41.6903367,5.31230164 L42.1763818,3.81582642 Z"></path>
                </g>
                <path d="M2.11754209,30.3986206 L2.60344985,31.8949585 L4.17619876,31.8949585 L2.90377928,32.81987 L3.3898243,34.3162079 L2.11740483,33.3914337 L0.845259883,34.3162079 L1.33116764,32.81987 L0.0588854319,31.8949585 L1.63149707,31.8949585 L2.11754209,30.3986206 Z M11.0193997,30.3986206 L11.5054447,31.8949585 L13.0781936,31.8949585 L11.8057742,32.81987 L12.2918192,34.3162079 L11.0193997,33.3914337 L9.74725476,34.3162079 L10.2331625,32.81987 L8.96088031,31.8949585 L10.5334919,31.8949585 L11.0193997,30.3986206 Z M19.9216691,30.3986206 L20.4075769,31.8949585 L21.9803258,31.8949585 L20.7079063,32.81987 L21.1939513,34.3162079 L19.9216691,33.3914337 L18.6493869,34.3162079 L19.1352947,32.81987 L17.8630124,31.8949585 L19.4357613,31.8949585 L19.9216691,30.3986206 Z M28.8233895,30.3986206 L29.3092972,31.8949585 L30.8819089,31.8949585 L29.6096266,32.81987 L30.0955344,34.3162079 L28.8233895,33.3914337 L27.55097,34.3162079 L28.037015,32.81987 L26.7645955,31.8949585 L28.3373444,31.8949585 L28.8233895,30.3986206 Z M37.7255216,30.3986206 L38.2114294,31.8949585 L39.7841783,31.8949585 L38.5117588,32.81987 L38.9978038,34.3162079 L37.7253843,33.3914337 L36.4532394,34.3162079 L36.9391471,32.81987 L35.6668649,31.8949585 L37.2394766,31.8949585 L37.7255216,30.3986206 Z M46.6276537,30.3986206 L47.1135615,31.8949585 L48.6863104,31.8949585 L47.4138909,32.81987 L47.8999359,34.3162079 L46.6276537,33.3914337 L45.3552343,34.3162079 L45.8414165,32.81987 L44.5689971,31.8949585 L46.141746,31.8949585 L46.6276537,30.3986206 Z" id="Shape"></path>
            </g>
        </g>
    </g>
</svg>
