<svg width="100px" height="100px" viewBox="0 0 100 100" version="1.1" xmlns="http://www.w3.org/2000/svg" xmlns:xlink="http://www.w3.org/1999/xlink">
    <path d="M50,50 C29.296875,50 12.5,66.796875 12.5,87.5 C12.5,94.409375 18.090625,100 25,100 L75,100 C81.909375,100 87.5,94.409375 87.5,87.5 C87.5,66.796875 70.703125,50 50,50 L50,50 Z M31.25,18.75 C31.25,8.39375 39.64375,0 50,0 C60.35625,0 68.75,8.39375 68.75,18.75 C68.75,29.10625 60.35625,37.5 50,37.5 C39.64375,37.5 31.25,29.10625 31.25,18.75 L31.25,18.75 Z" id="Shape"></path>
</svg>
