<svg width="100px" height="100px" viewBox="0 0 100 100" version="1.1" xmlns="http://www.w3.org/2000/svg" xmlns:xlink="http://www.w3.org/1999/xlink">
    <g id="vine" >
        <path d="M66.1187517,82.4977938 C68.3980986,83.7410739 70.4702321,83.9482872 72.749579,82.9122205 C75.0289259,81.8761537 76.0649926,79.5968068 76.0649926,76.0741799 C76.0649926,70.0649926 75.4433526,64.2630188 73.9928591,58.4610449 L87.6689404,58.4610449 C88.2905804,62.605312 88.7050071,69.2361392 88.7050071,78.5607401 C88.7050071,85.3987807 85.3895935,90.3719012 78.9659796,93.4801015 C72.5423656,96.5883017 66.1187517,96.5883017 59.6951378,93.6873148 C53.2715239,90.5791145 50.1633236,84.984354 50.1633236,76.4886066 C50.1633236,60.7403918 56.1725108,49.5508708 68.1908852,42.7128301 C65.9115384,38.3613497 63.2177648,34.2170827 60.1095645,30.280029 C57.0013642,26.3429753 54.7220173,23.6492017 53.0643105,21.9914949 L50.1633236,19.2977213 C46.2262699,22.4059216 42.7036429,26.1357619 39.5954426,30.280029 C36.4872423,34.424296 34.0006821,38.3613497 32.1357619,42.2984034 C30.2708418,46.2354571 28.8203483,50.1725108 27.5770682,54.3167779 C26.3337881,58.4610449 25.5049347,62.1908852 24.8832946,65.2990855 C24.2616546,68.4072858 24.0544412,71.5154861 23.8472278,74.6236864 C23.6400145,77.7318867 23.6400145,79.8040202 23.6400145,80.840087 L23.6400145,83.1194338 L11,83.1194338 C11,73.3804063 12.0360668,64.4702321 13.9009869,55.9744847 C15.9731205,47.4787372 18.045254,40.6406966 20.5318142,35.6675761 C23.0183744,30.6944557 25.9193614,25.9285486 29.234775,21.3698548 C32.757402,17.0183744 35.2439622,13.9101742 36.901669,12.4596807 C38.5593759,11.0091872 40.424296,9.3514804 42.4964296,7.90098693 C42.9108563,7.48656023 43.1180696,7.48656023 43.1180696,7.48656023 C44.7757764,6.24328011 46.0190565,5.4144267 46.84791,5.20721335 C47.6767634,5 49.3344702,5 51.8210304,5 C54.1003773,5.20721335 57.4157909,7.69377358 61.9744847,12.666894 C66.5331784,17.6400145 71.7135122,24.4780551 77.1010594,33.1810159 C78.1371262,34.8387227 79.1731929,36.7036429 80.2092597,38.3613497 L88.4977938,37.1180696 L88.4977938,48.514804 C83.9391,48.9292307 80.0020463,50.1725108 76.4794193,52.037431 C73.1640057,53.9023512 70.4702321,55.9744847 68.8125253,58.0466182 C67.1548185,60.3259651 65.704325,62.8125253 64.6682583,65.7135122 C63.6321915,68.6144992 63.0105514,70.893846 62.8033381,72.5515529 C63.0105514,74.2092597 62.8033381,75.6597532 62.8033381,77.1102466 C62.8033381,79.3895935 63.8394048,81.0473003 66.1187517,82.4977938 Z" id="Shape" transform="translate(49.852504, 50.418912) scale(1, -1) translate(-49.852504, -50.418912) "></path>
    </g>
</svg>
