<svg width="100px" height="100px" viewBox="0 0 100 100" version="1.1" xmlns="http://www.w3.org/2000/svg" xmlns:xlink="http://www.w3.org/1999/xlink">    
    <g id="youtube">
        <path d="M12,30.2178792 C12,33.3184382 12.2067039,38.0726285 12.6201118,44.2737464 C12.8268157,47.3743053 13.8603354,49.8547524 15.9273746,51.9217917 C17.9944139,53.7821271 20.4748611,54.8156467 23.57542,55.0223506 C29.36313,55.4357585 38.044695,55.6424624 49.6201149,55.6424624 C61.1955349,55.6424624 70.0838038,55.4357585 75.8715138,55.0223506 C78.9720728,54.8156467 81.4525199,53.7821271 83.5195592,51.9217917 C85.3798945,50.0614564 86.6201181,47.3743053 86.826822,44.2737464 C87.033526,39.1061482 87.2402299,34.3519578 87.2402299,30.2178792 C87.2402299,26.0838007 87.033526,21.3296103 86.826822,16.1620121 C86.6201181,13.0614532 85.3798945,10.5810061 83.5195592,8.51396678 C81.6592238,6.65363143 78.9720728,5.62011178 75.8715138,5.41340786 C70.0838038,5.20670393 61.4022389,5 49.6201149,5 C37.837991,5 29.36313,5.20670393 23.57542,5.41340786 C20.4748611,5.62011178 17.9944139,6.65363143 15.9273746,8.51396678 C13.8603354,10.3743021 12.8268157,13.0614532 12.6201118,16.1620121 C12.2067039,22.36313 12,27.1173203 12,30.2178792 L12,30.2178792 Z M17.9944139,42.413411 L23.1620121,42.413411 L23.1620121,14.0949728 L28.3296103,14.0949728 L28.3296103,42.413411 L33.4972085,42.413411 L33.4972085,47.1676014 L17.9944139,47.1676014 L17.9944139,42.413411 L17.9944139,42.413411 Z M23.57542,94.9162088 L28.7430182,94.9162088 L32.050281,81.6871574 L32.4636889,81.6871574 L35.5642478,94.9162088 L40.731846,94.9162088 L36.5977675,82.1005652 C35.3575439,77.7597827 34.7374321,75.6927435 34.7374321,75.4860395 L34.7374321,61.6368763 L29.5698339,61.6368763 L29.5698339,74.8659278 C29.36313,75.6927435 29.36313,76.3128552 29.156426,77.139671 C28.9497221,77.9664867 28.7430182,78.5865985 28.3296103,79.4134142 C27.9162025,80.2402299 27.7094985,81.0670456 27.7094985,81.6871574 L23.57542,94.9162088 L23.57542,94.9162088 Z M33.7039125,18.0223475 C33.7039125,15.1284925 34.7374321,13.681565 36.8044714,13.681565 C38.6648067,13.681565 40.3184382,14.7150846 41.9720696,16.7821239 L41.9720696,14.0949728 L46.7262599,14.0949728 L46.7262599,38.4860364 L41.9720696,38.4860364 L41.9720696,19.8826828 C40.731846,18.6424593 39.9050303,18.0223475 39.4916225,18.0223475 C38.6648067,18.0223475 38.044695,18.6424593 38.044695,19.6759789 L38.044695,38.4860364 L33.7039125,38.4860364 L33.7039125,18.0223475 L33.7039125,18.0223475 Z M40.5251421,67.8379942 L40.5251421,80.6536377 C40.5251421,82.5139731 41.1452539,84.1676045 42.3854775,85.2011242 C43.625701,86.2346438 45.2793324,86.8547556 47.1396678,86.8547556 C49.0000032,86.8547556 50.6536346,86.2346438 51.8938582,85.2011242 C53.1340817,83.9609006 53.5474896,82.5139731 53.5474896,80.6536377 L53.5474896,68.0446981 C53.5474896,65.9776588 52.9273778,64.3240274 51.8938582,63.0838038 C50.8603385,61.8435803 49.2067071,61.2234685 46.9329639,61.2234685 C45.0726285,61.2234685 43.4189971,61.8435803 42.1787735,63.0838038 C41.1452539,64.1173235 40.5251421,65.7709549 40.5251421,67.8379942 L40.5251421,67.8379942 Z M45.2793324,67.4245863 C45.2793324,66.1843628 45.8994442,65.564251 46.9329639,65.564251 C48.3798914,65.564251 49.0000032,66.1843628 49.0000032,67.6312903 L49.0000032,80.8603417 C49.0000032,81.4804535 48.7932992,81.8938613 48.3798914,82.3072692 C47.9664835,82.720677 47.3463717,82.720677 46.9329639,82.720677 C46.3128521,82.720677 45.8994442,82.5139731 45.6927403,82.3072692 C45.2793324,81.8938613 45.2793324,81.4804535 45.2793324,81.0670456 L45.2793324,67.4245863 L45.2793324,67.4245863 L45.2793324,67.4245863 L45.2793324,67.4245863 Z M51.0670424,14.0949728 L55.6145289,14.0949728 L55.6145289,15.7486043 C56.8547524,14.3016768 58.3016799,13.681565 60.1620153,13.681565 C62.8491664,13.681565 64.2960938,15.5419003 64.2960938,19.0558671 L64.2960938,32.6983264 C64.2960938,36.832405 62.8491664,38.8994442 59.7486074,38.8994442 C58.3016799,38.8994442 57.0614564,38.0726285 55.6145289,36.4189971 L55.6145289,47.3743053 L51.0670424,47.3743053 L51.0670424,14.0949728 L51.0670424,14.0949728 Z M55.6145289,18.8491632 L55.6145289,33.93855 C56.2346406,34.5586617 56.8547524,34.9720696 57.4748642,34.9720696 C58.7150878,34.9720696 59.3351996,34.1452539 59.3351996,32.6983264 L59.3351996,19.8826828 C59.3351996,18.4357553 58.7150878,17.8156436 57.6815681,17.8156436 C57.0614564,17.6089396 56.2346406,18.0223475 55.6145289,18.8491632 L55.6145289,18.8491632 Z M57.6815681,65.564251 L57.6815681,86.2346438 L62.2290546,86.2346438 L62.2290546,67.6312903 C62.2290546,66.3910667 62.6424624,65.9776588 63.4692781,65.9776588 C64.2960938,65.9776588 65.1229096,66.5977706 66.1564292,67.8379942 L66.1564292,86.2346438 L70.4972117,86.2346438 L70.4972117,61.8435803 L65.9497253,61.8435803 L65.9497253,64.5307313 C64.2960938,62.670396 62.4357585,61.6368763 60.7821271,61.6368763 C58.7150878,61.4301724 57.6815681,62.8770999 57.6815681,65.564251 L57.6815681,65.564251 Z M67.6033567,20.9162025 C67.6033567,18.6424593 68.2234685,16.9888278 69.2569881,15.5419003 C70.2905078,14.0949728 71.9441392,13.4748611 74.2178824,13.4748611 C78.7653688,13.4748611 81.039112,15.9553082 81.039112,21.1229064 L81.039112,22.9832418 L76.0782178,22.9832418 L76.0782178,21.7430182 L76.0782178,20.2960907 C76.0782178,20.0893868 75.8715138,19.6759789 75.8715138,19.0558671 C75.8715138,18.4357553 75.6648099,18.2290514 75.251402,18.0223475 C74.8379942,17.8156436 74.4245863,17.8156436 74.0111785,17.8156436 C72.7709549,17.8156436 72.1508431,19.0558671 72.1508431,21.3296103 L72.1508431,26.0838007 L80.8324081,26.0838007 L80.8324081,32.2849185 C80.8324081,34.5586617 80.2122963,36.2122932 79.1787767,37.4525167 C78.145257,38.6927403 76.4916256,39.3128521 74.2178824,39.3128521 C72.1508431,39.3128521 70.4972117,38.6927403 69.2569881,37.2458128 C68.0167646,35.7988853 67.3966528,34.1452539 67.3966528,32.0782146 C67.6033567,32.0782146 67.6033567,20.9162025 67.6033567,20.9162025 L67.6033567,20.9162025 Z M72.3575471,29.5977675 L72.3575471,32.0782146 C72.3575471,33.93855 72.9776588,34.7653657 74.2178824,34.7653657 C75.458106,34.7653657 76.0782178,33.93855 76.0782178,32.0782146 L76.0782178,29.5977675 L72.3575471,29.5977675 L72.3575471,29.5977675 Z" id="Shape" transform="translate(49.620115, 49.958104) scale(1, -1) translate(-49.620115, -49.958104) "></path>
    </g>
</svg>
